# MagicaVoxel @ Ephtracy

# group
o 

# material
mtllib -.mtl
usemtl palette

# normals
vn -1 0 0
vn 1 0 0
vn 0 0 1
vn 0 0 -1
vn 0 -1 0
vn 0 1 0

# texcoords
vt 0.416016 0.5
vt 0.419922 0.5
vt 0.427734 0.5

# verts
v 0 1.2 -0.4
v 0 1.2 -0.5
v 0 1.2 -0.8
v 0 1.6 -0.4
v 0 1.6 -0.5
v 0 1.6 -0.8
v 2.8 1.2 -0.4
v 2.8 1.2 -0.5
v 2.8 1.2 -0.8
v 2.8 1.6 -0.4
v 2.8 1.6 -0.5
v 2.8 1.6 -0.8
v 0 1.2 -0.4
v 0 1.6 -0.4
v 0.1 1.3 -0.4
v 0.1 1.5 -0.4
v 2.6 1.3 -0.4
v 2.6 1.5 -0.4
v 2.7 1.3 -0.4
v 2.7 1.5 -0.4
v 2.8 1.2 -0.4
v 2.8 1.6 -0.4
v 0 1.2 -0.8
v 0 1.6 -0.8
v 2.8 1.2 -0.8
v 2.8 1.6 -0.8
v 0 1.2 -0.4
v 2.8 1.2 -0.4
v 0 1.2 -0.5
v 2.8 1.2 -0.5
v 0 1.2 -0.8
v 2.8 1.2 -0.8
v 0 1.6 -0.4
v 2.8 1.6 -0.4
v 0 1.6 -0.5
v 2.8 1.6 -0.5
v 0 1.6 -0.8
v 2.8 1.6 -0.8

# faces
f 4/1/1 2/1/1 1/1/1
f 5/3/1 3/3/1 2/3/1
f 5/1/1 2/1/1 4/1/1
f 6/3/1 3/3/1 5/3/1
f 7/1/2 8/1/2 10/1/2
f 8/3/2 9/3/2 11/3/2
f 10/1/2 8/1/2 11/1/2
f 11/3/2 9/3/2 12/3/2
f 15/1/3 14/1/3 13/1/3
f 16/1/3 14/1/3 15/1/3
f 17/1/3 15/1/3 13/1/3
f 17/3/3 16/3/3 15/3/3
f 18/1/3 14/1/3 16/1/3
f 18/3/3 16/3/3 17/3/3
f 19/1/3 17/1/3 13/1/3
f 19/2/3 18/2/3 17/2/3
f 20/1/3 14/1/3 18/1/3
f 20/2/3 18/2/3 19/2/3
f 21/1/3 19/1/3 13/1/3
f 21/1/3 20/1/3 19/1/3
f 22/1/3 14/1/3 20/1/3
f 22/1/3 20/1/3 21/1/3
f 23/3/4 24/3/4 25/3/4
f 25/3/4 24/3/4 26/3/4
f 29/1/5 28/1/5 27/1/5
f 30/1/5 28/1/5 29/1/5
f 31/3/5 30/3/5 29/3/5
f 32/3/5 30/3/5 31/3/5
f 33/1/6 34/1/6 35/1/6
f 35/1/6 34/1/6 36/1/6
f 35/3/6 36/3/6 37/3/6
f 37/3/6 36/3/6 38/3/6
