# MagicaVoxel @ Ephtracy

# group
o 

# material
mtllib オ.mtl
usemtl palette

# normals
vn -1 0 0
vn 1 0 0
vn 0 0 1
vn 0 0 -1
vn 0 -1 0
vn 0 1 0

# texcoords
vt 0.416016 0.5
vt 0.419922 0.5
vt 0.427734 0.5

# verts
v 0 0.4 -0.4
v 0 0.4 -0.5
v 0 0.4 -0.8
v 0 0.8 -0.4
v 0 0.8 -0.5
v 0 0.8 -0.8
v 0 2 -0.4
v 0 2 -0.5
v 0 2 -0.8
v 0 2.4 -0.4
v 0 2.4 -0.5
v 0 2.4 -0.8
v 0.8 0.8 -0.4
v 0.8 0.8 -0.5
v 0.8 0.8 -0.8
v 0.8 1.2 -0.4
v 0.8 1.2 -0.5
v 0.8 1.2 -0.8
v 1.2 0 -0.4
v 1.2 0 -0.5
v 1.2 0 -0.8
v 1.2 0.4 -0.4
v 1.2 0.4 -0.5
v 1.2 0.4 -0.8
v 1.2 1.2 -0.4
v 1.2 1.2 -0.5
v 1.2 1.2 -0.8
v 1.2 1.6 -0.4
v 1.2 1.6 -0.5
v 1.2 1.6 -0.8
v 1.6 0.4 -0.4
v 1.6 0.4 -0.5
v 1.6 0.4 -0.8
v 1.6 1.2 -0.4
v 1.6 1.2 -0.5
v 1.6 1.2 -0.8
v 1.6 1.6 -0.4
v 1.6 1.6 -0.5
v 1.6 1.6 -0.8
v 1.6 2 -0.4
v 1.6 2 -0.5
v 1.6 2 -0.8
v 1.6 2.4 -0.4
v 1.6 2.4 -0.5
v 1.6 2.4 -0.8
v 1.6 2.8 -0.4
v 1.6 2.8 -0.5
v 1.6 2.8 -0.8
v 0.8 0.4 -0.4
v 0.8 0.4 -0.5
v 0.8 0.4 -0.8
v 0.8 0.8 -0.4
v 0.8 0.8 -0.5
v 0.8 0.8 -0.8
v 1.2 0.8 -0.4
v 1.2 0.8 -0.5
v 1.2 0.8 -0.8
v 1.2 1.2 -0.4
v 1.2 1.2 -0.5
v 1.2 1.2 -0.8
v 2 0 -0.4
v 2 0 -0.5
v 2 0 -0.8
v 2 2 -0.4
v 2 2 -0.5
v 2 2 -0.8
v 2 2.4 -0.4
v 2 2.4 -0.5
v 2 2.4 -0.8
v 2 2.8 -0.4
v 2 2.8 -0.5
v 2 2.8 -0.8
v 2.8 2 -0.4
v 2.8 2 -0.5
v 2.8 2 -0.8
v 2.8 2.4 -0.4
v 2.8 2.4 -0.5
v 2.8 2.4 -0.8
v 0 0.4 -0.4
v 0 0.8 -0.4
v 0 2 -0.4
v 0 2.4 -0.4
v 0.1 0.5 -0.4
v 0.1 0.7 -0.4
v 0.1 2.1 -0.4
v 0.1 2.3 -0.4
v 0.6 0.5 -0.4
v 0.6 0.7 -0.4
v 0.7 0.5 -0.4
v 0.7 0.7 -0.4
v 0.8 0.4 -0.4
v 0.8 0.8 -0.4
v 0.8 1.2 -0.4
v 0.9 0.9 -0.4
v 0.9 1.1 -0.4
v 1 0.9 -0.4
v 1 1.1 -0.4
v 1.1 0.9 -0.4
v 1.1 1.1 -0.4
v 1.2 0 -0.4
v 1.2 0.4 -0.4
v 1.2 0.8 -0.4
v 1.2 1.2 -0.4
v 1.2 1.6 -0.4
v 1.3 0.1 -0.4
v 1.3 0.3 -0.4
v 1.3 1.3 -0.4
v 1.3 1.5 -0.4
v 1.6 0.4 -0.4
v 1.6 1.2 -0.4
v 1.6 1.6 -0.4
v 1.6 2 -0.4
v 1.6 2.4 -0.4
v 1.6 2.8 -0.4
v 1.7 0.3 -0.4
v 1.7 1.3 -0.4
v 1.7 1.5 -0.4
v 1.7 2.1 -0.4
v 1.7 2.3 -0.4
v 1.7 2.7 -0.4
v 1.8 0.1 -0.4
v 1.8 2.1 -0.4
v 1.8 2.3 -0.4
v 1.8 2.7 -0.4
v 1.9 0.1 -0.4
v 1.9 2.1 -0.4
v 1.9 2.3 -0.4
v 1.9 2.7 -0.4
v 2 0 -0.4
v 2 2 -0.4
v 2 2.4 -0.4
v 2 2.8 -0.4
v 2.6 2.1 -0.4
v 2.6 2.3 -0.4
v 2.7 2.1 -0.4
v 2.7 2.3 -0.4
v 2.8 2 -0.4
v 2.8 2.4 -0.4
v 0 0.4 -0.8
v 0 0.8 -0.8
v 0 2 -0.8
v 0 2.4 -0.8
v 0.8 0.4 -0.8
v 0.8 0.8 -0.8
v 0.8 1.2 -0.8
v 1.2 0 -0.8
v 1.2 0.4 -0.8
v 1.2 0.8 -0.8
v 1.2 1.2 -0.8
v 1.2 1.6 -0.8
v 1.6 0.4 -0.8
v 1.6 1.2 -0.8
v 1.6 1.6 -0.8
v 1.6 2 -0.8
v 1.6 2.4 -0.8
v 1.6 2.8 -0.8
v 2 0 -0.8
v 2 2 -0.8
v 2 2.4 -0.8
v 2 2.8 -0.8
v 2.8 2 -0.8
v 2.8 2.4 -0.8
v 1.2 0 -0.4
v 2 0 -0.4
v 1.2 0 -0.5
v 2 0 -0.5
v 1.2 0 -0.8
v 2 0 -0.8
v 0 0.4 -0.4
v 0.8 0.4 -0.4
v 0 0.4 -0.5
v 0.8 0.4 -0.5
v 0 0.4 -0.8
v 0.8 0.4 -0.8
v 0.8 0.8 -0.4
v 1.2 0.8 -0.4
v 0.8 0.8 -0.5
v 1.2 0.8 -0.5
v 0.8 0.8 -0.8
v 1.2 0.8 -0.8
v 1.2 1.2 -0.4
v 1.6 1.2 -0.4
v 1.2 1.2 -0.5
v 1.6 1.2 -0.5
v 1.2 1.2 -0.8
v 1.6 1.2 -0.8
v 0 2 -0.4
v 1.6 2 -0.4
v 2 2 -0.4
v 2.8 2 -0.4
v 0 2 -0.5
v 1.6 2 -0.5
v 2 2 -0.5
v 2.8 2 -0.5
v 0 2 -0.8
v 1.6 2 -0.8
v 2 2 -0.8
v 2.8 2 -0.8
v 1.2 0.4 -0.4
v 1.6 0.4 -0.4
v 1.2 0.4 -0.5
v 1.6 0.4 -0.5
v 1.2 0.4 -0.8
v 1.6 0.4 -0.8
v 0 0.8 -0.4
v 0.8 0.8 -0.4
v 0 0.8 -0.5
v 0.8 0.8 -0.5
v 0 0.8 -0.8
v 0.8 0.8 -0.8
v 0.8 1.2 -0.4
v 1.2 1.2 -0.4
v 0.8 1.2 -0.5
v 1.2 1.2 -0.5
v 0.8 1.2 -0.8
v 1.2 1.2 -0.8
v 1.2 1.6 -0.4
v 1.6 1.6 -0.4
v 1.2 1.6 -0.5
v 1.6 1.6 -0.5
v 1.2 1.6 -0.8
v 1.6 1.6 -0.8
v 0 2.4 -0.4
v 1.6 2.4 -0.4
v 2 2.4 -0.4
v 2.8 2.4 -0.4
v 0 2.4 -0.5
v 1.6 2.4 -0.5
v 2 2.4 -0.5
v 2.8 2.4 -0.5
v 0 2.4 -0.8
v 1.6 2.4 -0.8
v 2 2.4 -0.8
v 2.8 2.4 -0.8
v 1.6 2.8 -0.4
v 2 2.8 -0.4
v 1.6 2.8 -0.5
v 2 2.8 -0.5
v 1.6 2.8 -0.8
v 2 2.8 -0.8

# faces
f 4/1/1 2/1/1 1/1/1
f 5/3/1 3/3/1 2/3/1
f 5/1/1 2/1/1 4/1/1
f 6/3/1 3/3/1 5/3/1
f 10/1/1 8/1/1 7/1/1
f 11/3/1 9/3/1 8/3/1
f 11/1/1 8/1/1 10/1/1
f 12/3/1 9/3/1 11/3/1
f 16/1/1 14/1/1 13/1/1
f 17/3/1 15/3/1 14/3/1
f 17/1/1 14/1/1 16/1/1
f 18/3/1 15/3/1 17/3/1
f 22/1/1 20/1/1 19/1/1
f 23/3/1 21/3/1 20/3/1
f 23/1/1 20/1/1 22/1/1
f 24/3/1 21/3/1 23/3/1
f 28/1/1 26/1/1 25/1/1
f 29/3/1 27/3/1 26/3/1
f 29/1/1 26/1/1 28/1/1
f 30/3/1 27/3/1 29/3/1
f 34/1/1 32/1/1 31/1/1
f 35/3/1 33/3/1 32/3/1
f 35/1/1 32/1/1 34/1/1
f 36/3/1 33/3/1 35/3/1
f 40/1/1 38/1/1 37/1/1
f 41/3/1 39/3/1 38/3/1
f 41/1/1 38/1/1 40/1/1
f 42/3/1 39/3/1 41/3/1
f 46/1/1 44/1/1 43/1/1
f 47/3/1 45/3/1 44/3/1
f 47/1/1 44/1/1 46/1/1
f 48/3/1 45/3/1 47/3/1
f 49/1/2 50/1/2 52/1/2
f 50/3/2 51/3/2 53/3/2
f 52/1/2 50/1/2 53/1/2
f 53/3/2 51/3/2 54/3/2
f 55/1/2 56/1/2 58/1/2
f 56/3/2 57/3/2 59/3/2
f 58/1/2 56/1/2 59/1/2
f 59/3/2 57/3/2 60/3/2
f 61/1/2 62/1/2 64/1/2
f 62/3/2 63/3/2 65/3/2
f 64/1/2 62/1/2 65/1/2
f 65/3/2 63/3/2 66/3/2
f 67/1/2 68/1/2 70/1/2
f 68/3/2 69/3/2 71/3/2
f 70/1/2 68/1/2 71/1/2
f 71/3/2 69/3/2 72/3/2
f 73/1/2 74/1/2 76/1/2
f 74/3/2 75/3/2 77/3/2
f 76/1/2 74/1/2 77/1/2
f 77/3/2 75/3/2 78/3/2
f 83/1/3 80/1/3 79/1/3
f 84/1/3 80/1/3 83/1/3
f 85/1/3 82/1/3 81/1/3
f 86/1/3 82/1/3 85/1/3
f 87/1/3 83/1/3 79/1/3
f 87/3/3 84/3/3 83/3/3
f 88/1/3 80/1/3 84/1/3
f 88/3/3 84/3/3 87/3/3
f 89/1/3 87/1/3 79/1/3
f 89/2/3 88/2/3 87/2/3
f 90/1/3 80/1/3 88/1/3
f 90/2/3 88/2/3 89/2/3
f 91/1/3 89/1/3 79/1/3
f 91/1/3 90/1/3 89/1/3
f 92/1/3 80/1/3 90/1/3
f 92/1/3 90/1/3 91/1/3
f 94/1/3 93/1/3 92/1/3
f 95/1/3 93/1/3 94/1/3
f 96/1/3 94/1/3 92/1/3
f 96/3/3 95/3/3 94/3/3
f 97/1/3 93/1/3 95/1/3
f 97/3/3 95/3/3 96/3/3
f 98/1/3 96/1/3 92/1/3
f 98/2/3 97/2/3 96/2/3
f 99/1/3 93/1/3 97/1/3
f 99/2/3 97/2/3 98/2/3
f 102/1/3 98/1/3 92/1/3
f 102/1/3 99/1/3 98/1/3
f 103/1/3 93/1/3 99/1/3
f 103/1/3 99/1/3 102/1/3
f 105/1/3 101/1/3 100/1/3
f 106/1/3 101/1/3 105/1/3
f 107/1/3 104/1/3 103/1/3
f 108/1/3 104/1/3 107/1/3
f 109/1/3 101/1/3 106/1/3
f 110/1/3 107/1/3 103/1/3
f 111/1/3 104/1/3 108/1/3
f 112/1/3 85/1/3 81/1/3
f 113/1/3 82/1/3 86/1/3
f 115/1/3 110/1/3 109/1/3
f 115/3/3 106/3/3 105/3/3
f 115/1/3 109/1/3 106/1/3
f 116/3/3 108/3/3 107/3/3
f 116/1/3 110/1/3 115/1/3
f 116/1/3 107/1/3 110/1/3
f 117/1/3 112/1/3 111/1/3
f 117/3/3 108/3/3 116/3/3
f 117/1/3 111/1/3 108/1/3
f 118/3/3 86/3/3 85/3/3
f 118/1/3 112/1/3 117/1/3
f 118/1/3 85/1/3 112/1/3
f 119/1/3 114/1/3 113/1/3
f 119/3/3 86/3/3 118/3/3
f 119/1/3 113/1/3 86/1/3
f 120/1/3 114/1/3 119/1/3
f 121/3/3 116/3/3 115/3/3
f 121/3/3 117/3/3 116/3/3
f 121/3/3 120/3/3 119/3/3
f 121/3/3 119/3/3 118/3/3
f 121/3/3 118/3/3 117/3/3
f 121/3/3 115/3/3 105/3/3
f 121/1/3 105/1/3 100/1/3
f 122/3/3 120/3/3 121/3/3
f 123/3/3 120/3/3 122/3/3
f 124/1/3 114/1/3 120/1/3
f 124/3/3 120/3/3 123/3/3
f 125/1/3 121/1/3 100/1/3
f 125/2/3 122/2/3 121/2/3
f 126/3/3 123/3/3 122/3/3
f 126/2/3 122/2/3 125/2/3
f 127/2/3 124/2/3 123/2/3
f 127/3/3 123/3/3 126/3/3
f 128/1/3 114/1/3 124/1/3
f 128/2/3 124/2/3 127/2/3
f 129/1/3 125/1/3 100/1/3
f 129/1/3 126/1/3 125/1/3
f 130/1/3 126/1/3 129/1/3
f 131/1/3 128/1/3 127/1/3
f 132/1/3 114/1/3 128/1/3
f 132/1/3 128/1/3 131/1/3
f 133/3/3 127/3/3 126/3/3
f 133/1/3 126/1/3 130/1/3
f 134/1/3 131/1/3 127/1/3
f 134/3/3 127/3/3 133/3/3
f 135/1/3 133/1/3 130/1/3
f 135/2/3 134/2/3 133/2/3
f 136/1/3 131/1/3 134/1/3
f 136/2/3 134/2/3 135/2/3
f 137/1/3 135/1/3 130/1/3
f 137/1/3 136/1/3 135/1/3
f 138/1/3 131/1/3 136/1/3
f 138/1/3 136/1/3 137/1/3
f 139/3/4 140/3/4 143/3/4
f 143/3/4 140/3/4 144/3/4
f 144/3/4 145/3/4 148/3/4
f 148/3/4 145/3/4 149/3/4
f 146/3/4 147/3/4 151/3/4
f 149/3/4 150/3/4 152/3/4
f 152/3/4 150/3/4 153/3/4
f 141/3/4 142/3/4 154/3/4
f 154/3/4 142/3/4 155/3/4
f 152/3/4 153/3/4 157/3/4
f 155/3/4 156/3/4 157/3/4
f 154/3/4 155/3/4 157/3/4
f 153/3/4 154/3/4 157/3/4
f 146/3/4 151/3/4 157/3/4
f 151/3/4 152/3/4 157/3/4
f 157/3/4 156/3/4 158/3/4
f 158/3/4 156/3/4 159/3/4
f 159/3/4 156/3/4 160/3/4
f 158/3/4 159/3/4 161/3/4
f 161/3/4 159/3/4 162/3/4
f 165/1/5 164/1/5 163/1/5
f 166/1/5 164/1/5 165/1/5
f 167/3/5 166/3/5 165/3/5
f 168/3/5 166/3/5 167/3/5
f 171/1/5 170/1/5 169/1/5
f 172/1/5 170/1/5 171/1/5
f 173/3/5 172/3/5 171/3/5
f 174/3/5 172/3/5 173/3/5
f 177/1/5 176/1/5 175/1/5
f 178/1/5 176/1/5 177/1/5
f 179/3/5 178/3/5 177/3/5
f 180/3/5 178/3/5 179/3/5
f 183/1/5 182/1/5 181/1/5
f 184/1/5 182/1/5 183/1/5
f 185/3/5 184/3/5 183/3/5
f 186/3/5 184/3/5 185/3/5
f 191/1/5 188/1/5 187/1/5
f 192/1/5 188/1/5 191/1/5
f 193/1/5 190/1/5 189/1/5
f 194/1/5 190/1/5 193/1/5
f 195/3/5 192/3/5 191/3/5
f 196/3/5 192/3/5 195/3/5
f 197/3/5 194/3/5 193/3/5
f 198/3/5 194/3/5 197/3/5
f 199/1/6 200/1/6 201/1/6
f 201/1/6 200/1/6 202/1/6
f 201/3/6 202/3/6 203/3/6
f 203/3/6 202/3/6 204/3/6
f 205/1/6 206/1/6 207/1/6
f 207/1/6 206/1/6 208/1/6
f 207/3/6 208/3/6 209/3/6
f 209/3/6 208/3/6 210/3/6
f 211/1/6 212/1/6 213/1/6
f 213/1/6 212/1/6 214/1/6
f 213/3/6 214/3/6 215/3/6
f 215/3/6 214/3/6 216/3/6
f 217/1/6 218/1/6 219/1/6
f 219/1/6 218/1/6 220/1/6
f 219/3/6 220/3/6 221/3/6
f 221/3/6 220/3/6 222/3/6
f 223/1/6 224/1/6 227/1/6
f 227/1/6 224/1/6 228/1/6
f 225/1/6 226/1/6 229/1/6
f 229/1/6 226/1/6 230/1/6
f 227/3/6 228/3/6 231/3/6
f 231/3/6 228/3/6 232/3/6
f 229/3/6 230/3/6 233/3/6
f 233/3/6 230/3/6 234/3/6
f 235/1/6 236/1/6 237/1/6
f 237/1/6 236/1/6 238/1/6
f 237/3/6 238/3/6 239/3/6
f 239/3/6 238/3/6 240/3/6
