# MagicaVoxel @ Ephtracy

# group
o 

# material
mtllib pipe1.mtl
usemtl palette

# normals
vn -1 0 0
vn 1 0 0
vn 0 0 1
vn 0 0 -1
vn 0 -1 0
vn 0 1 0

# texcoords
vt 0.232422 0.5
vt 0.958984 0.5
vt 0.966797 0.5
vt 0.982422 0.5

# verts
v 0 2 0
v 0 2 -2
v 0 2.1 0
v 0 2.1 -2
v 0 3.9 0
v 0 3.9 -2
v 0 4 0
v 0 4 -2
v 0.1 2.1 -0.1
v 0.1 2.1 -1.9
v 0.1 3.9 -0.1
v 0.1 3.9 -1.9
v 0.3 2.3 -0.2
v 0.3 2.3 -0.3
v 0.3 2.3 -0.4
v 0.3 2.6 -0.2
v 0.3 2.6 -0.3
v 0.3 2.6 -0.4
v 0.3 2.8 -0.2
v 0.3 2.8 -0.3
v 0.3 2.8 -0.4
v 0.3 3.5 -0.3
v 0.3 3.5 -0.4
v 0.3 3.9 -0.2
v 0.3 3.9 -0.3
v 0.6 2.3 -0.2
v 0.6 2.3 -0.3
v 0.6 2.3 -0.4
v 0.6 2.5 -0.2
v 0.6 2.5 -0.3
v 0.6 2.5 -0.4
v 0.6 2.7 -0.2
v 0.6 2.7 -0.3
v 0.6 2.7 -0.4
v 0.6 3.8 -0.3
v 0.6 3.8 -0.4
v 0.6 3.9 -0.2
v 0.6 3.9 -0.3
v 0.9 2.3 -0.2
v 0.9 2.3 -0.3
v 0.9 2.3 -0.4
v 0.9 2.4 -0.2
v 0.9 2.4 -0.3
v 0.9 2.4 -0.4
v 0.9 2.6 -0.2
v 0.9 2.6 -0.3
v 0.9 2.6 -0.4
v 0.9 3.9 -0.2
v 0.9 3.9 -0.3
v 0.9 3.9 -0.4
v 1.2 2.3 -0.2
v 1.2 2.3 -0.3
v 1.2 2.3 -0.4
v 1.2 2.5 -0.2
v 1.2 2.5 -0.3
v 1.2 2.5 -0.4
v 1.2 2.7 -0.2
v 1.2 2.7 -0.3
v 1.2 2.7 -0.4
v 1.2 3.8 -0.3
v 1.2 3.8 -0.4
v 1.2 3.9 -0.2
v 1.2 3.9 -0.3
v 1.5 2.3 -0.2
v 1.5 2.3 -0.3
v 1.5 2.3 -0.4
v 1.5 2.6 -0.2
v 1.5 2.6 -0.3
v 1.5 2.6 -0.4
v 1.5 2.8 -0.2
v 1.5 2.8 -0.3
v 1.5 2.8 -0.4
v 1.5 3.8 -0.3
v 1.5 3.8 -0.4
v 1.5 3.9 -0.2
v 1.5 3.9 -0.3
v 1.8 2.2 -0.1
v 1.8 2.2 -0.2
v 1.8 2.3 -0.2
v 1.8 2.3 -0.4
v 1.8 3.5 -0.3
v 1.8 3.5 -0.4
v 1.8 3.9 -0.1
v 1.8 3.9 -0.3
v 0.2 2.2 -0.1
v 0.2 2.2 -0.2
v 0.2 2.3 -0.2
v 0.2 2.3 -0.4
v 0.2 3.5 -0.3
v 0.2 3.5 -0.4
v 0.2 3.9 -0.1
v 0.2 3.9 -0.3
v 0.5 2.3 -0.2
v 0.5 2.3 -0.3
v 0.5 2.3 -0.4
v 0.5 2.6 -0.2
v 0.5 2.6 -0.3
v 0.5 2.6 -0.4
v 0.5 2.8 -0.2
v 0.5 2.8 -0.3
v 0.5 2.8 -0.4
v 0.5 3.8 -0.3
v 0.5 3.8 -0.4
v 0.5 3.9 -0.2
v 0.5 3.9 -0.3
v 0.8 2.3 -0.2
v 0.8 2.3 -0.3
v 0.8 2.3 -0.4
v 0.8 2.5 -0.2
v 0.8 2.5 -0.3
v 0.8 2.5 -0.4
v 0.8 2.7 -0.2
v 0.8 2.7 -0.3
v 0.8 2.7 -0.4
v 0.8 3.9 -0.2
v 0.8 3.9 -0.3
v 0.8 3.9 -0.4
v 1.1 2.3 -0.2
v 1.1 2.3 -0.3
v 1.1 2.3 -0.4
v 1.1 2.4 -0.2
v 1.1 2.4 -0.3
v 1.1 2.4 -0.4
v 1.1 2.6 -0.2
v 1.1 2.6 -0.3
v 1.1 2.6 -0.4
v 1.1 3.8 -0.3
v 1.1 3.8 -0.4
v 1.1 3.9 -0.2
v 1.1 3.9 -0.3
v 1.4 2.3 -0.2
v 1.4 2.3 -0.3
v 1.4 2.3 -0.4
v 1.4 2.5 -0.2
v 1.4 2.5 -0.3
v 1.4 2.5 -0.4
v 1.4 2.7 -0.2
v 1.4 2.7 -0.3
v 1.4 2.7 -0.4
v 1.4 3.8 -0.3
v 1.4 3.8 -0.4
v 1.4 3.9 -0.2
v 1.4 3.9 -0.3
v 1.7 2.3 -0.2
v 1.7 2.3 -0.3
v 1.7 2.3 -0.4
v 1.7 2.6 -0.2
v 1.7 2.6 -0.3
v 1.7 2.6 -0.4
v 1.7 2.8 -0.2
v 1.7 2.8 -0.3
v 1.7 2.8 -0.4
v 1.7 3.5 -0.3
v 1.7 3.5 -0.4
v 1.7 3.9 -0.2
v 1.7 3.9 -0.3
v 1.9 2.1 -0.1
v 1.9 2.1 -1.9
v 1.9 3.9 -0.1
v 1.9 3.9 -1.9
v 2 2 0
v 2 2 -2
v 2 2.1 0
v 2 2.1 -2
v 2 3.9 0
v 2 3.9 -2
v 2 4 0
v 2 4 -2
v 0 2 0
v 0 2.1 0
v 0 3.9 0
v 0 4 0
v 2 2 0
v 2 2.1 0
v 2 3.9 0
v 2 4 0
v 0.1 2.1 -0.1
v 0.1 3.9 -0.1
v 0.2 2.2 -0.1
v 0.2 3.9 -0.1
v 1.8 2.2 -0.1
v 1.8 3.9 -0.1
v 1.9 2.1 -0.1
v 1.9 3.9 -0.1
v 0.2 2.2 -0.2
v 0.2 2.3 -0.2
v 0.3 2.2 -0.2
v 0.3 2.3 -0.2
v 0.3 2.6 -0.2
v 0.3 2.8 -0.2
v 0.3 3.9 -0.2
v 0.4 2.2 -0.2
v 0.4 2.6 -0.2
v 0.4 2.8 -0.2
v 0.4 3.9 -0.2
v 0.5 2.2 -0.2
v 0.5 2.3 -0.2
v 0.5 2.6 -0.2
v 0.5 2.8 -0.2
v 0.5 3.9 -0.2
v 0.6 2.2 -0.2
v 0.6 2.3 -0.2
v 0.6 2.5 -0.2
v 0.6 2.7 -0.2
v 0.6 3.9 -0.2
v 0.7 2.2 -0.2
v 0.7 2.5 -0.2
v 0.7 2.7 -0.2
v 0.7 3.9 -0.2
v 0.8 2.2 -0.2
v 0.8 2.3 -0.2
v 0.8 2.5 -0.2
v 0.8 2.7 -0.2
v 0.8 3.9 -0.2
v 0.9 2.2 -0.2
v 0.9 2.3 -0.2
v 0.9 2.4 -0.2
v 0.9 2.6 -0.2
v 0.9 3.9 -0.2
v 1 2.2 -0.2
v 1 2.4 -0.2
v 1 2.6 -0.2
v 1 3.9 -0.2
v 1.1 2.2 -0.2
v 1.1 2.3 -0.2
v 1.1 2.4 -0.2
v 1.1 2.6 -0.2
v 1.1 3.9 -0.2
v 1.2 2.2 -0.2
v 1.2 2.3 -0.2
v 1.2 2.5 -0.2
v 1.2 2.7 -0.2
v 1.2 3.9 -0.2
v 1.3 2.2 -0.2
v 1.3 2.5 -0.2
v 1.3 2.7 -0.2
v 1.3 3.9 -0.2
v 1.4 2.2 -0.2
v 1.4 2.3 -0.2
v 1.4 2.5 -0.2
v 1.4 2.7 -0.2
v 1.4 3.9 -0.2
v 1.5 2.2 -0.2
v 1.5 2.3 -0.2
v 1.5 2.6 -0.2
v 1.5 2.8 -0.2
v 1.5 3.9 -0.2
v 1.6 2.2 -0.2
v 1.6 2.6 -0.2
v 1.6 2.8 -0.2
v 1.6 3.9 -0.2
v 1.7 2.2 -0.2
v 1.7 2.3 -0.2
v 1.7 2.6 -0.2
v 1.7 2.8 -0.2
v 1.7 3.9 -0.2
v 1.8 2.2 -0.2
v 1.8 2.3 -0.2
v 0.2 3.5 -0.3
v 0.2 3.9 -0.3
v 0.3 2.6 -0.3
v 0.3 2.8 -0.3
v 0.3 3.5 -0.3
v 0.3 3.9 -0.3
v 0.4 2.6 -0.3
v 0.4 2.8 -0.3
v 0.5 2.6 -0.3
v 0.5 2.8 -0.3
v 0.5 3.8 -0.3
v 0.5 3.9 -0.3
v 0.6 2.5 -0.3
v 0.6 2.7 -0.3
v 0.6 3.8 -0.3
v 0.6 3.9 -0.3
v 0.7 2.5 -0.3
v 0.7 2.7 -0.3
v 0.8 2.5 -0.3
v 0.8 2.7 -0.3
v 0.9 2.4 -0.3
v 0.9 2.6 -0.3
v 1 2.4 -0.3
v 1 2.6 -0.3
v 1.1 2.4 -0.3
v 1.1 2.6 -0.3
v 1.1 3.8 -0.3
v 1.1 3.9 -0.3
v 1.2 2.5 -0.3
v 1.2 2.7 -0.3
v 1.2 3.8 -0.3
v 1.2 3.9 -0.3
v 1.3 2.5 -0.3
v 1.3 2.7 -0.3
v 1.4 2.5 -0.3
v 1.4 2.7 -0.3
v 1.4 3.8 -0.3
v 1.4 3.9 -0.3
v 1.5 2.6 -0.3
v 1.5 2.8 -0.3
v 1.5 3.8 -0.3
v 1.5 3.9 -0.3
v 1.6 2.6 -0.3
v 1.6 2.8 -0.3
v 1.7 2.6 -0.3
v 1.7 2.8 -0.3
v 1.7 3.5 -0.3
v 1.7 3.9 -0.3
v 1.8 3.5 -0.3
v 1.8 3.9 -0.3
v 0.2 2.3 -0.4
v 0.2 3.5 -0.4
v 0.3 2.3 -0.4
v 0.3 2.6 -0.4
v 0.3 2.8 -0.4
v 0.3 3.5 -0.4
v 0.5 2.3 -0.4
v 0.5 2.6 -0.4
v 0.5 2.8 -0.4
v 0.5 3.8 -0.4
v 0.6 2.3 -0.4
v 0.6 2.5 -0.4
v 0.6 2.7 -0.4
v 0.6 3.8 -0.4
v 0.8 2.3 -0.4
v 0.8 2.5 -0.4
v 0.8 2.7 -0.4
v 0.8 3.9 -0.4
v 0.9 2.3 -0.4
v 0.9 2.4 -0.4
v 0.9 2.6 -0.4
v 0.9 3.9 -0.4
v 1.1 2.3 -0.4
v 1.1 2.4 -0.4
v 1.1 2.6 -0.4
v 1.1 3.8 -0.4
v 1.2 2.3 -0.4
v 1.2 2.5 -0.4
v 1.2 2.7 -0.4
v 1.2 3.8 -0.4
v 1.4 2.3 -0.4
v 1.4 2.5 -0.4
v 1.4 2.7 -0.4
v 1.4 3.8 -0.4
v 1.5 2.3 -0.4
v 1.5 2.6 -0.4
v 1.5 2.8 -0.4
v 1.5 3.8 -0.4
v 1.7 2.3 -0.4
v 1.7 2.6 -0.4
v 1.7 2.8 -0.4
v 1.7 3.5 -0.4
v 1.8 2.3 -0.4
v 1.8 3.5 -0.4
v 0.1 2.1 -1.9
v 0.1 3.9 -1.9
v 1.9 2.1 -1.9
v 1.9 3.9 -1.9
v 0 2 -2
v 0 2.1 -2
v 0 3.9 -2
v 0 4 -2
v 2 2 -2
v 2 2.1 -2
v 2 3.9 -2
v 2 4 -2
v 0 2 0
v 2 2 0
v 0 2 -2
v 2 2 -2
v 0.9 2.6 -0.2
v 1 2.6 -0.2
v 1.1 2.6 -0.2
v 0.9 2.6 -0.3
v 1 2.6 -0.3
v 1.1 2.6 -0.3
v 0.6 2.7 -0.2
v 0.7 2.7 -0.2
v 0.8 2.7 -0.2
v 1.2 2.7 -0.2
v 1.3 2.7 -0.2
v 1.4 2.7 -0.2
v 0.6 2.7 -0.3
v 0.7 2.7 -0.3
v 0.8 2.7 -0.3
v 1.2 2.7 -0.3
v 1.3 2.7 -0.3
v 1.4 2.7 -0.3
v 0.3 2.8 -0.2
v 0.4 2.8 -0.2
v 0.5 2.8 -0.2
v 1.5 2.8 -0.2
v 1.6 2.8 -0.2
v 1.7 2.8 -0.2
v 0.3 2.8 -0.3
v 0.4 2.8 -0.3
v 0.5 2.8 -0.3
v 1.5 2.8 -0.3
v 1.6 2.8 -0.3
v 1.7 2.8 -0.3
v 0.2 3.5 -0.3
v 0.3 3.5 -0.3
v 1.7 3.5 -0.3
v 1.8 3.5 -0.3
v 0.2 3.5 -0.4
v 0.3 3.5 -0.4
v 1.7 3.5 -0.4
v 1.8 3.5 -0.4
v 0.5 3.8 -0.3
v 0.6 3.8 -0.3
v 1.1 3.8 -0.3
v 1.2 3.8 -0.3
v 1.4 3.8 -0.3
v 1.5 3.8 -0.3
v 0.5 3.8 -0.4
v 0.6 3.8 -0.4
v 1.1 3.8 -0.4
v 1.2 3.8 -0.4
v 1.4 3.8 -0.4
v 1.5 3.8 -0.4
v 0 3.9 0
v 2 3.9 0
v 0.1 3.9 -0.1
v 0.2 3.9 -0.1
v 1.8 3.9 -0.1
v 1.9 3.9 -0.1
v 0.3 3.9 -0.2
v 0.4 3.9 -0.2
v 0.5 3.9 -0.2
v 0.6 3.9 -0.2
v 0.7 3.9 -0.2
v 0.8 3.9 -0.2
v 0.9 3.9 -0.2
v 1 3.9 -0.2
v 1.1 3.9 -0.2
v 1.2 3.9 -0.2
v 1.3 3.9 -0.2
v 1.4 3.9 -0.2
v 1.5 3.9 -0.2
v 1.6 3.9 -0.2
v 1.7 3.9 -0.2
v 0.2 3.9 -0.3
v 0.3 3.9 -0.3
v 0.5 3.9 -0.3
v 0.6 3.9 -0.3
v 0.8 3.9 -0.3
v 0.9 3.9 -0.3
v 1.1 3.9 -0.3
v 1.2 3.9 -0.3
v 1.4 3.9 -0.3
v 1.5 3.9 -0.3
v 1.7 3.9 -0.3
v 1.8 3.9 -0.3
v 0.8 3.9 -0.4
v 0.9 3.9 -0.4
v 0.1 3.9 -1.9
v 1.9 3.9 -1.9
v 0 3.9 -2
v 2 3.9 -2
v 0 2.1 0
v 2 2.1 0
v 0.1 2.1 -0.1
v 1.9 2.1 -0.1
v 0.1 2.1 -1.9
v 1.9 2.1 -1.9
v 0 2.1 -2
v 2 2.1 -2
v 0.2 2.2 -0.1
v 1.8 2.2 -0.1
v 0.2 2.2 -0.2
v 0.3 2.2 -0.2
v 0.4 2.2 -0.2
v 0.5 2.2 -0.2
v 0.6 2.2 -0.2
v 0.7 2.2 -0.2
v 0.8 2.2 -0.2
v 0.9 2.2 -0.2
v 1 2.2 -0.2
v 1.1 2.2 -0.2
v 1.2 2.2 -0.2
v 1.3 2.2 -0.2
v 1.4 2.2 -0.2
v 1.5 2.2 -0.2
v 1.6 2.2 -0.2
v 1.7 2.2 -0.2
v 1.8 2.2 -0.2
v 0.2 2.3 -0.2
v 0.3 2.3 -0.2
v 0.5 2.3 -0.2
v 0.6 2.3 -0.2
v 0.8 2.3 -0.2
v 0.9 2.3 -0.2
v 1.1 2.3 -0.2
v 1.2 2.3 -0.2
v 1.4 2.3 -0.2
v 1.5 2.3 -0.2
v 1.7 2.3 -0.2
v 1.8 2.3 -0.2
v 0.3 2.3 -0.3
v 0.5 2.3 -0.3
v 0.6 2.3 -0.3
v 0.8 2.3 -0.3
v 0.9 2.3 -0.3
v 1.1 2.3 -0.3
v 1.2 2.3 -0.3
v 1.4 2.3 -0.3
v 1.5 2.3 -0.3
v 1.7 2.3 -0.3
v 0.2 2.3 -0.4
v 0.3 2.3 -0.4
v 0.5 2.3 -0.4
v 0.6 2.3 -0.4
v 0.8 2.3 -0.4
v 0.9 2.3 -0.4
v 1.1 2.3 -0.4
v 1.2 2.3 -0.4
v 1.4 2.3 -0.4
v 1.5 2.3 -0.4
v 1.7 2.3 -0.4
v 1.8 2.3 -0.4
v 0.9 2.4 -0.2
v 1 2.4 -0.2
v 1.1 2.4 -0.2
v 0.9 2.4 -0.3
v 1 2.4 -0.3
v 1.1 2.4 -0.3
v 0.6 2.5 -0.2
v 0.7 2.5 -0.2
v 0.8 2.5 -0.2
v 1.2 2.5 -0.2
v 1.3 2.5 -0.2
v 1.4 2.5 -0.2
v 0.6 2.5 -0.3
v 0.7 2.5 -0.3
v 0.8 2.5 -0.3
v 1.2 2.5 -0.3
v 1.3 2.5 -0.3
v 1.4 2.5 -0.3
v 0.3 2.6 -0.2
v 0.4 2.6 -0.2
v 0.5 2.6 -0.2
v 1.5 2.6 -0.2
v 1.6 2.6 -0.2
v 1.7 2.6 -0.2
v 0.3 2.6 -0.3
v 0.4 2.6 -0.3
v 0.5 2.6 -0.3
v 1.5 2.6 -0.3
v 1.6 2.6 -0.3
v 1.7 2.6 -0.3
v 0 4 0
v 2 4 0
v 0 4 -2
v 2 4 -2

# faces
f 3/1/1 2/1/1 1/1/1
f 4/1/1 2/1/1 3/1/1
f 7/1/1 6/1/1 5/1/1
f 8/1/1 6/1/1 7/1/1
f 11/1/1 10/1/1 9/1/1
f 12/1/1 10/1/1 11/1/1
f 16/3/1 14/3/1 13/3/1
f 17/4/1 15/4/1 14/4/1
f 17/3/1 14/3/1 16/3/1
f 18/4/1 15/4/1 17/4/1
f 20/3/1 18/3/1 17/3/1
f 21/3/1 18/3/1 20/3/1
f 22/3/1 20/3/1 19/3/1
f 22/4/1 21/4/1 20/4/1
f 23/4/1 21/4/1 22/4/1
f 24/3/1 22/3/1 19/3/1
f 25/3/1 22/3/1 24/3/1
f 29/3/1 27/3/1 26/3/1
f 30/4/1 28/4/1 27/4/1
f 30/3/1 27/3/1 29/3/1
f 31/4/1 28/4/1 30/4/1
f 33/3/1 31/3/1 30/3/1
f 34/3/1 31/3/1 33/3/1
f 35/3/1 33/3/1 32/3/1
f 35/4/1 34/4/1 33/4/1
f 36/4/1 34/4/1 35/4/1
f 37/3/1 35/3/1 32/3/1
f 38/3/1 35/3/1 37/3/1
f 42/3/1 40/3/1 39/3/1
f 43/4/1 41/4/1 40/4/1
f 43/3/1 40/3/1 42/3/1
f 44/4/1 41/4/1 43/4/1
f 46/3/1 44/3/1 43/3/1
f 47/3/1 44/3/1 46/3/1
f 48/3/1 46/3/1 45/3/1
f 49/4/1 47/4/1 46/4/1
f 49/3/1 46/3/1 48/3/1
f 50/4/1 47/4/1 49/4/1
f 54/3/1 52/3/1 51/3/1
f 55/4/1 53/4/1 52/4/1
f 55/3/1 52/3/1 54/3/1
f 56/4/1 53/4/1 55/4/1
f 58/3/1 56/3/1 55/3/1
f 59/3/1 56/3/1 58/3/1
f 60/3/1 58/3/1 57/3/1
f 60/4/1 59/4/1 58/4/1
f 61/4/1 59/4/1 60/4/1
f 62/3/1 60/3/1 57/3/1
f 63/3/1 60/3/1 62/3/1
f 67/3/1 65/3/1 64/3/1
f 68/4/1 66/4/1 65/4/1
f 68/3/1 65/3/1 67/3/1
f 69/4/1 66/4/1 68/4/1
f 71/3/1 69/3/1 68/3/1
f 72/3/1 69/3/1 71/3/1
f 73/3/1 71/3/1 70/3/1
f 73/4/1 72/4/1 71/4/1
f 74/4/1 72/4/1 73/4/1
f 75/3/1 73/3/1 70/3/1
f 76/3/1 73/3/1 75/3/1
f 79/1/1 78/1/1 77/1/1
f 81/1/1 80/1/1 79/1/1
f 82/1/1 80/1/1 81/1/1
f 83/1/1 79/1/1 77/1/1
f 83/1/1 81/1/1 79/1/1
f 84/1/1 81/1/1 83/1/1
f 85/1/2 86/1/2 87/1/2
f 87/1/2 88/1/2 89/1/2
f 89/1/2 88/1/2 90/1/2
f 85/1/2 87/1/2 91/1/2
f 87/1/2 89/1/2 91/1/2
f 91/1/2 89/1/2 92/1/2
f 93/2/2 94/2/2 96/2/2
f 94/4/2 95/4/2 97/4/2
f 96/2/2 94/2/2 97/2/2
f 97/4/2 95/4/2 98/4/2
f 97/2/2 98/2/2 100/2/2
f 100/2/2 98/2/2 101/2/2
f 99/2/2 100/2/2 102/2/2
f 100/4/2 101/4/2 102/4/2
f 102/4/2 101/4/2 103/4/2
f 99/2/2 102/2/2 104/2/2
f 104/2/2 102/2/2 105/2/2
f 106/2/2 107/2/2 109/2/2
f 107/4/2 108/4/2 110/4/2
f 109/2/2 107/2/2 110/2/2
f 110/4/2 108/4/2 111/4/2
f 110/2/2 111/2/2 113/2/2
f 113/2/2 111/2/2 114/2/2
f 112/2/2 113/2/2 115/2/2
f 113/4/2 114/4/2 116/4/2
f 115/2/2 113/2/2 116/2/2
f 116/4/2 114/4/2 117/4/2
f 118/2/2 119/2/2 121/2/2
f 119/4/2 120/4/2 122/4/2
f 121/2/2 119/2/2 122/2/2
f 122/4/2 120/4/2 123/4/2
f 122/2/2 123/2/2 125/2/2
f 125/2/2 123/2/2 126/2/2
f 124/2/2 125/2/2 127/2/2
f 125/4/2 126/4/2 127/4/2
f 127/4/2 126/4/2 128/4/2
f 124/2/2 127/2/2 129/2/2
f 129/2/2 127/2/2 130/2/2
f 131/2/2 132/2/2 134/2/2
f 132/4/2 133/4/2 135/4/2
f 134/2/2 132/2/2 135/2/2
f 135/4/2 133/4/2 136/4/2
f 135/2/2 136/2/2 138/2/2
f 138/2/2 136/2/2 139/2/2
f 137/2/2 138/2/2 140/2/2
f 138/4/2 139/4/2 140/4/2
f 140/4/2 139/4/2 141/4/2
f 137/2/2 140/2/2 142/2/2
f 142/2/2 140/2/2 143/2/2
f 144/2/2 145/2/2 147/2/2
f 145/4/2 146/4/2 148/4/2
f 147/2/2 145/2/2 148/2/2
f 148/4/2 146/4/2 149/4/2
f 148/2/2 149/2/2 151/2/2
f 151/2/2 149/2/2 152/2/2
f 150/2/2 151/2/2 153/2/2
f 151/4/2 152/4/2 153/4/2
f 153/4/2 152/4/2 154/4/2
f 150/2/2 153/2/2 155/2/2
f 155/2/2 153/2/2 156/2/2
f 157/1/2 158/1/2 159/1/2
f 159/1/2 158/1/2 160/1/2
f 161/1/2 162/1/2 163/1/2
f 163/1/2 162/1/2 164/1/2
f 165/1/2 166/1/2 167/1/2
f 167/1/2 166/1/2 168/1/2
f 173/1/3 170/1/3 169/1/3
f 174/1/3 170/1/3 173/1/3
f 175/1/3 172/1/3 171/1/3
f 176/1/3 172/1/3 175/1/3
f 179/1/3 178/1/3 177/1/3
f 180/1/3 178/1/3 179/1/3
f 181/1/3 179/1/3 177/1/3
f 183/1/3 181/1/3 177/1/3
f 183/1/3 182/1/3 181/1/3
f 184/1/3 182/1/3 183/1/3
f 187/1/3 186/1/3 185/1/3
f 188/1/3 186/1/3 187/1/3
f 192/3/3 188/3/3 187/3/3
f 192/3/3 189/3/3 188/3/3
f 193/3/3 189/3/3 192/3/3
f 194/3/3 191/3/3 190/3/3
f 195/3/3 191/3/3 194/3/3
f 196/2/3 193/2/3 192/2/3
f 197/2/3 193/2/3 196/2/3
f 198/2/3 193/2/3 197/2/3
f 199/2/3 195/2/3 194/2/3
f 200/2/3 195/2/3 199/2/3
f 201/1/3 197/1/3 196/1/3
f 202/1/3 197/1/3 201/1/3
f 206/3/3 202/3/3 201/3/3
f 206/3/3 203/3/3 202/3/3
f 207/3/3 203/3/3 206/3/3
f 208/3/3 205/3/3 204/3/3
f 209/3/3 205/3/3 208/3/3
f 210/2/3 207/2/3 206/2/3
f 211/2/3 207/2/3 210/2/3
f 212/2/3 207/2/3 211/2/3
f 213/2/3 209/2/3 208/2/3
f 214/2/3 209/2/3 213/2/3
f 215/1/3 211/1/3 210/1/3
f 216/1/3 211/1/3 215/1/3
f 220/3/3 216/3/3 215/3/3
f 220/3/3 217/3/3 216/3/3
f 221/3/3 217/3/3 220/3/3
f 222/3/3 219/3/3 218/3/3
f 223/3/3 219/3/3 222/3/3
f 224/2/3 221/2/3 220/2/3
f 225/2/3 221/2/3 224/2/3
f 226/2/3 221/2/3 225/2/3
f 227/2/3 223/2/3 222/2/3
f 228/2/3 223/2/3 227/2/3
f 229/1/3 225/1/3 224/1/3
f 230/1/3 225/1/3 229/1/3
f 234/3/3 230/3/3 229/3/3
f 234/3/3 231/3/3 230/3/3
f 235/3/3 231/3/3 234/3/3
f 236/3/3 233/3/3 232/3/3
f 237/3/3 233/3/3 236/3/3
f 238/2/3 235/2/3 234/2/3
f 239/2/3 235/2/3 238/2/3
f 240/2/3 235/2/3 239/2/3
f 241/2/3 237/2/3 236/2/3
f 242/2/3 237/2/3 241/2/3
f 243/1/3 239/1/3 238/1/3
f 244/1/3 239/1/3 243/1/3
f 248/3/3 244/3/3 243/3/3
f 248/3/3 245/3/3 244/3/3
f 249/3/3 245/3/3 248/3/3
f 250/3/3 247/3/3 246/3/3
f 251/3/3 247/3/3 250/3/3
f 252/2/3 249/2/3 248/2/3
f 253/2/3 249/2/3 252/2/3
f 254/2/3 249/2/3 253/2/3
f 255/2/3 251/2/3 250/2/3
f 256/2/3 251/2/3 255/2/3
f 257/1/3 253/1/3 252/1/3
f 258/1/3 253/1/3 257/1/3
f 263/4/3 260/4/3 259/4/3
f 264/4/3 260/4/3 263/4/3
f 265/3/3 262/3/3 261/3/3
f 266/3/3 262/3/3 265/3/3
f 267/2/3 266/2/3 265/2/3
f 268/2/3 266/2/3 267/2/3
f 273/4/3 270/4/3 269/4/3
f 274/4/3 270/4/3 273/4/3
f 275/3/3 272/3/3 271/3/3
f 276/3/3 272/3/3 275/3/3
f 277/2/3 276/2/3 275/2/3
f 278/2/3 276/2/3 277/2/3
f 281/3/3 280/3/3 279/3/3
f 282/3/3 280/3/3 281/3/3
f 283/2/3 282/2/3 281/2/3
f 284/2/3 282/2/3 283/2/3
f 289/4/3 286/4/3 285/4/3
f 290/4/3 286/4/3 289/4/3
f 291/3/3 288/3/3 287/3/3
f 292/3/3 288/3/3 291/3/3
f 293/2/3 292/2/3 291/2/3
f 294/2/3 292/2/3 293/2/3
f 299/4/3 296/4/3 295/4/3
f 300/4/3 296/4/3 299/4/3
f 301/3/3 298/3/3 297/3/3
f 302/3/3 298/3/3 301/3/3
f 303/2/3 302/2/3 301/2/3
f 304/2/3 302/2/3 303/2/3
f 307/4/3 306/4/3 305/4/3
f 308/4/3 306/4/3 307/4/3
f 311/4/3 310/4/3 309/4/3
f 312/4/3 310/4/3 311/4/3
f 313/4/3 310/4/3 312/4/3
f 314/4/3 310/4/3 313/4/3
f 319/4/3 317/4/3 316/4/3
f 319/4/3 318/4/3 317/4/3
f 319/4/3 316/4/3 315/4/3
f 320/4/3 318/4/3 319/4/3
f 321/4/3 318/4/3 320/4/3
f 322/4/3 318/4/3 321/4/3
f 327/4/3 325/4/3 324/4/3
f 327/4/3 326/4/3 325/4/3
f 327/4/3 324/4/3 323/4/3
f 328/4/3 326/4/3 327/4/3
f 329/4/3 326/4/3 328/4/3
f 330/4/3 326/4/3 329/4/3
f 335/4/3 332/4/3 331/4/3
f 335/4/3 334/4/3 333/4/3
f 335/4/3 333/4/3 332/4/3
f 336/4/3 334/4/3 335/4/3
f 337/4/3 334/4/3 336/4/3
f 338/4/3 334/4/3 337/4/3
f 343/4/3 340/4/3 339/4/3
f 343/4/3 342/4/3 341/4/3
f 343/4/3 341/4/3 340/4/3
f 344/4/3 342/4/3 343/4/3
f 345/4/3 342/4/3 344/4/3
f 346/4/3 342/4/3 345/4/3
f 351/4/3 348/4/3 347/4/3
f 351/4/3 350/4/3 349/4/3
f 351/4/3 349/4/3 348/4/3
f 352/4/3 350/4/3 351/4/3
f 353/1/4 354/1/4 355/1/4
f 355/1/4 354/1/4 356/1/4
f 357/1/4 358/1/4 361/1/4
f 361/1/4 358/1/4 362/1/4
f 359/1/4 360/1/4 363/1/4
f 363/1/4 360/1/4 364/1/4
f 367/1/5 366/1/5 365/1/5
f 368/1/5 366/1/5 367/1/5
f 372/3/5 370/3/5 369/3/5
f 373/2/5 371/2/5 370/2/5
f 373/3/5 370/3/5 372/3/5
f 374/2/5 371/2/5 373/2/5
f 381/3/5 376/3/5 375/3/5
f 382/2/5 377/2/5 376/2/5
f 382/3/5 376/3/5 381/3/5
f 383/2/5 377/2/5 382/2/5
f 384/3/5 379/3/5 378/3/5
f 385/2/5 380/2/5 379/2/5
f 385/3/5 379/3/5 384/3/5
f 386/2/5 380/2/5 385/2/5
f 393/3/5 388/3/5 387/3/5
f 394/2/5 389/2/5 388/2/5
f 394/3/5 388/3/5 393/3/5
f 395/2/5 389/2/5 394/2/5
f 396/3/5 391/3/5 390/3/5
f 397/2/5 392/2/5 391/2/5
f 397/3/5 391/3/5 396/3/5
f 398/2/5 392/2/5 397/2/5
f 403/4/5 400/4/5 399/4/5
f 404/4/5 400/4/5 403/4/5
f 405/4/5 402/4/5 401/4/5
f 406/4/5 402/4/5 405/4/5
f 413/4/5 408/4/5 407/4/5
f 414/4/5 408/4/5 413/4/5
f 415/4/5 410/4/5 409/4/5
f 416/4/5 410/4/5 415/4/5
f 417/4/5 412/4/5 411/4/5
f 418/4/5 412/4/5 417/4/5
f 421/1/5 420/1/5 419/1/5
f 422/1/5 420/1/5 421/1/5
f 423/1/5 420/1/5 422/1/5
f 424/1/5 420/1/5 423/1/5
f 425/1/5 423/1/5 422/1/5
f 426/1/5 423/1/5 425/1/5
f 427/1/5 423/1/5 426/1/5
f 428/1/5 423/1/5 427/1/5
f 429/1/5 423/1/5 428/1/5
f 430/1/5 423/1/5 429/1/5
f 431/1/5 423/1/5 430/1/5
f 432/1/5 423/1/5 431/1/5
f 433/1/5 423/1/5 432/1/5
f 434/1/5 423/1/5 433/1/5
f 435/1/5 423/1/5 434/1/5
f 436/1/5 423/1/5 435/1/5
f 437/1/5 423/1/5 436/1/5
f 438/1/5 423/1/5 437/1/5
f 439/1/5 423/1/5 438/1/5
f 440/1/5 425/1/5 422/1/5
f 441/1/5 425/1/5 440/1/5
f 442/1/5 428/1/5 427/1/5
f 443/1/5 428/1/5 442/1/5
f 444/1/5 431/1/5 430/1/5
f 445/1/5 431/1/5 444/1/5
f 446/1/5 434/1/5 433/1/5
f 447/1/5 434/1/5 446/1/5
f 448/1/5 437/1/5 436/1/5
f 449/1/5 437/1/5 448/1/5
f 450/1/5 423/1/5 439/1/5
f 451/1/5 423/1/5 450/1/5
f 452/1/5 445/1/5 444/1/5
f 453/1/5 445/1/5 452/1/5
f 454/1/5 421/1/5 419/1/5
f 455/1/5 420/1/5 424/1/5
f 456/1/5 454/1/5 419/1/5
f 456/1/5 455/1/5 454/1/5
f 457/1/5 420/1/5 455/1/5
f 457/1/5 455/1/5 456/1/5
f 458/1/6 459/1/6 460/1/6
f 460/1/6 459/1/6 461/1/6
f 458/1/6 460/1/6 462/1/6
f 461/1/6 459/1/6 463/1/6
f 458/1/6 462/1/6 464/1/6
f 462/1/6 463/1/6 464/1/6
f 463/1/6 459/1/6 465/1/6
f 464/1/6 463/1/6 465/1/6
f 466/1/6 467/1/6 468/1/6
f 468/1/6 467/1/6 469/1/6
f 469/1/6 467/1/6 470/1/6
f 470/1/6 467/1/6 471/1/6
f 471/1/6 467/1/6 472/1/6
f 472/1/6 467/1/6 473/1/6
f 473/1/6 467/1/6 474/1/6
f 474/1/6 467/1/6 475/1/6
f 475/1/6 467/1/6 476/1/6
f 476/1/6 467/1/6 477/1/6
f 477/1/6 467/1/6 478/1/6
f 478/1/6 467/1/6 479/1/6
f 479/1/6 467/1/6 480/1/6
f 480/1/6 467/1/6 481/1/6
f 481/1/6 467/1/6 482/1/6
f 482/1/6 467/1/6 483/1/6
f 483/1/6 467/1/6 484/1/6
f 485/1/6 486/1/6 497/1/6
f 487/1/6 488/1/6 498/1/6
f 498/1/6 488/1/6 499/1/6
f 489/1/6 490/1/6 500/1/6
f 500/1/6 490/1/6 501/1/6
f 491/1/6 492/1/6 502/1/6
f 502/1/6 492/1/6 503/1/6
f 493/1/6 494/1/6 504/1/6
f 504/1/6 494/1/6 505/1/6
f 495/1/6 496/1/6 506/1/6
f 485/1/6 497/1/6 507/1/6
f 507/1/6 497/1/6 508/1/6
f 498/1/6 499/1/6 509/1/6
f 509/1/6 499/1/6 510/1/6
f 500/1/6 501/1/6 511/1/6
f 511/1/6 501/1/6 512/1/6
f 502/1/6 503/1/6 513/1/6
f 513/1/6 503/1/6 514/1/6
f 504/1/6 505/1/6 515/1/6
f 515/1/6 505/1/6 516/1/6
f 506/1/6 496/1/6 517/1/6
f 517/1/6 496/1/6 518/1/6
f 519/3/6 520/3/6 522/3/6
f 520/2/6 521/2/6 523/2/6
f 522/3/6 520/3/6 523/3/6
f 523/2/6 521/2/6 524/2/6
f 525/3/6 526/3/6 531/3/6
f 526/2/6 527/2/6 532/2/6
f 531/3/6 526/3/6 532/3/6
f 532/2/6 527/2/6 533/2/6
f 528/3/6 529/3/6 534/3/6
f 529/2/6 530/2/6 535/2/6
f 534/3/6 529/3/6 535/3/6
f 535/2/6 530/2/6 536/2/6
f 537/3/6 538/3/6 543/3/6
f 538/2/6 539/2/6 544/2/6
f 543/3/6 538/3/6 544/3/6
f 544/2/6 539/2/6 545/2/6
f 540/3/6 541/3/6 546/3/6
f 541/2/6 542/2/6 547/2/6
f 546/3/6 541/3/6 547/3/6
f 547/2/6 542/2/6 548/2/6
f 549/1/6 550/1/6 551/1/6
f 551/1/6 550/1/6 552/1/6
