# MagicaVoxel @ Ephtracy

# group
o 

# material
mtllib pipe.mtl
usemtl palette

# normals
vn -1 0 0
vn 1 0 0
vn 0 0 1
vn 0 0 -1
vn 0 -1 0
vn 0 1 0

# texcoords
vt 0.232422 0.5
vt 0.962891 0.5
vt 0.982422 0.5

# verts
v 0 2 0
v 0 2 -2
v 0 2.1 0
v 0 2.1 -2
v 0 2.6 0
v 0 2.6 -2
v 0 2.7 0
v 0 2.7 -2
v 0 6.3 0
v 0 6.3 -2
v 0 6.4 0
v 0 6.4 -2
v 0 6.9 0
v 0 6.9 -2
v 0 7 0
v 0 7 -2
v 0.1 2.1 -0.1
v 0.1 2.1 -1.9
v 0.1 2.2 -0.1
v 0.1 2.2 -1.9
v 0.1 2.5 -0.1
v 0.1 2.5 -1.9
v 0.1 2.6 -0.1
v 0.1 2.6 -1.9
v 0.1 2.7 -0.1
v 0.1 2.7 -1.9
v 0.1 6.3 -0.1
v 0.1 6.3 -1.9
v 0.1 6.4 -0.1
v 0.1 6.4 -1.9
v 0.1 6.5 -0.1
v 0.1 6.5 -1.9
v 0.1 6.8 -0.1
v 0.1 6.8 -1.9
v 0.1 6.9 -0.1
v 0.1 6.9 -1.9
v 0.2 2.2 -0.2
v 0.2 2.2 -1.8
v 0.2 2.5 -0.2
v 0.2 2.5 -1.8
v 0.2 6.5 -0.2
v 0.2 6.5 -1.8
v 0.2 6.8 -0.2
v 0.2 6.8 -1.8
v 0.3 2.8 -0.2
v 0.3 2.8 -0.3
v 0.3 2.8 -0.4
v 0.3 3.2 -0.2
v 0.3 3.2 -0.3
v 0.3 3.2 -0.4
v 0.3 3.4 -0.2
v 0.3 3.4 -0.3
v 0.3 3.4 -0.4
v 0.3 5.3 -0.2
v 0.3 5.3 -0.3
v 0.3 5.3 -0.4
v 0.6 2.8 -0.2
v 0.6 2.8 -0.3
v 0.6 2.8 -0.4
v 0.6 3.1 -0.2
v 0.6 3.1 -0.3
v 0.6 3.1 -0.4
v 0.6 3.3 -0.2
v 0.6 3.3 -0.3
v 0.6 3.3 -0.4
v 0.6 5.7 -0.2
v 0.6 5.7 -0.3
v 0.6 5.7 -0.4
v 0.9 2.8 -0.2
v 0.9 2.8 -0.3
v 0.9 2.8 -0.4
v 0.9 3 -0.2
v 0.9 3 -0.3
v 0.9 3 -0.4
v 0.9 3.2 -0.2
v 0.9 3.2 -0.3
v 0.9 3.2 -0.4
v 0.9 5.9 -0.2
v 0.9 5.9 -0.3
v 0.9 5.9 -0.4
v 1.1 5.9 -0.1
v 1.1 5.9 -0.2
v 1.1 6 -0.1
v 1.1 6 -0.2
v 1.2 2.8 -0.2
v 1.2 2.8 -0.3
v 1.2 2.8 -0.4
v 1.2 3.1 -0.2
v 1.2 3.1 -0.3
v 1.2 3.1 -0.4
v 1.2 3.3 -0.2
v 1.2 3.3 -0.3
v 1.2 3.3 -0.4
v 1.2 5.9 -0.2
v 1.2 5.9 -0.3
v 1.2 5.9 -0.4
v 1.3 5.8 -0.1
v 1.3 5.8 -0.2
v 1.3 5.9 -0.1
v 1.3 5.9 -0.2
v 1.4 5.7 -0.1
v 1.4 5.7 -0.2
v 1.4 5.8 -0.1
v 1.4 5.8 -0.2
v 1.5 2.8 -0.2
v 1.5 2.8 -0.3
v 1.5 2.8 -0.4
v 1.5 3.2 -0.2
v 1.5 3.2 -0.3
v 1.5 3.2 -0.4
v 1.5 3.4 -0.2
v 1.5 3.4 -0.3
v 1.5 3.4 -0.4
v 1.5 5.6 -0.1
v 1.5 5.6 -0.2
v 1.5 5.6 -0.3
v 1.5 5.6 -0.4
v 1.5 5.7 -0.1
v 1.5 5.7 -0.4
v 1.6 5.5 -0.1
v 1.6 5.5 -0.2
v 1.6 5.6 -0.1
v 1.6 5.6 -0.2
v 1.7 5.3 -0.1
v 1.7 5.3 -0.2
v 1.7 5.5 -0.1
v 1.7 5.5 -0.2
v 1.8 2.8 -0.1
v 1.8 2.8 -0.4
v 1.8 5.3 -0.1
v 1.8 5.3 -0.4
v 0.2 2.8 -0.1
v 0.2 2.8 -0.4
v 0.2 5.3 -0.1
v 0.2 5.3 -0.4
v 0.3 5.3 -0.1
v 0.3 5.3 -0.2
v 0.3 5.5 -0.1
v 0.3 5.5 -0.2
v 0.4 5.5 -0.1
v 0.4 5.5 -0.2
v 0.4 5.6 -0.1
v 0.4 5.6 -0.2
v 0.5 2.8 -0.2
v 0.5 2.8 -0.3
v 0.5 2.8 -0.4
v 0.5 3.2 -0.2
v 0.5 3.2 -0.3
v 0.5 3.2 -0.4
v 0.5 3.4 -0.2
v 0.5 3.4 -0.3
v 0.5 3.4 -0.4
v 0.5 5.6 -0.1
v 0.5 5.6 -0.2
v 0.5 5.6 -0.3
v 0.5 5.6 -0.4
v 0.5 5.7 -0.1
v 0.5 5.7 -0.4
v 0.6 5.7 -0.1
v 0.6 5.7 -0.2
v 0.6 5.8 -0.1
v 0.6 5.8 -0.2
v 0.7 5.8 -0.1
v 0.7 5.8 -0.2
v 0.7 5.9 -0.1
v 0.7 5.9 -0.2
v 0.8 2.8 -0.2
v 0.8 2.8 -0.3
v 0.8 2.8 -0.4
v 0.8 3.1 -0.2
v 0.8 3.1 -0.3
v 0.8 3.1 -0.4
v 0.8 3.3 -0.2
v 0.8 3.3 -0.3
v 0.8 3.3 -0.4
v 0.8 5.9 -0.2
v 0.8 5.9 -0.3
v 0.8 5.9 -0.4
v 0.9 5.9 -0.1
v 0.9 5.9 -0.2
v 0.9 6 -0.1
v 0.9 6 -0.2
v 1.1 2.8 -0.2
v 1.1 2.8 -0.3
v 1.1 2.8 -0.4
v 1.1 3 -0.2
v 1.1 3 -0.3
v 1.1 3 -0.4
v 1.1 3.2 -0.2
v 1.1 3.2 -0.3
v 1.1 3.2 -0.4
v 1.1 5.9 -0.2
v 1.1 5.9 -0.3
v 1.1 5.9 -0.4
v 1.4 2.8 -0.2
v 1.4 2.8 -0.3
v 1.4 2.8 -0.4
v 1.4 3.1 -0.2
v 1.4 3.1 -0.3
v 1.4 3.1 -0.4
v 1.4 3.3 -0.2
v 1.4 3.3 -0.3
v 1.4 3.3 -0.4
v 1.4 5.7 -0.2
v 1.4 5.7 -0.3
v 1.4 5.7 -0.4
v 1.7 2.8 -0.2
v 1.7 2.8 -0.3
v 1.7 2.8 -0.4
v 1.7 3.2 -0.2
v 1.7 3.2 -0.3
v 1.7 3.2 -0.4
v 1.7 3.4 -0.2
v 1.7 3.4 -0.3
v 1.7 3.4 -0.4
v 1.7 5.3 -0.2
v 1.7 5.3 -0.3
v 1.7 5.3 -0.4
v 1.8 2.2 -0.2
v 1.8 2.2 -1.8
v 1.8 2.5 -0.2
v 1.8 2.5 -1.8
v 1.8 6.5 -0.2
v 1.8 6.5 -1.8
v 1.8 6.8 -0.2
v 1.8 6.8 -1.8
v 1.9 2.1 -0.1
v 1.9 2.1 -1.9
v 1.9 2.2 -0.1
v 1.9 2.2 -1.9
v 1.9 2.5 -0.1
v 1.9 2.5 -1.9
v 1.9 2.6 -0.1
v 1.9 2.6 -1.9
v 1.9 2.7 -0.1
v 1.9 2.7 -1.9
v 1.9 6.3 -0.1
v 1.9 6.3 -1.9
v 1.9 6.4 -0.1
v 1.9 6.4 -1.9
v 1.9 6.5 -0.1
v 1.9 6.5 -1.9
v 1.9 6.8 -0.1
v 1.9 6.8 -1.9
v 1.9 6.9 -0.1
v 1.9 6.9 -1.9
v 2 2 0
v 2 2 -2
v 2 2.1 0
v 2 2.1 -2
v 2 2.6 0
v 2 2.6 -2
v 2 2.7 0
v 2 2.7 -2
v 2 6.3 0
v 2 6.3 -2
v 2 6.4 0
v 2 6.4 -2
v 2 6.9 0
v 2 6.9 -2
v 2 7 0
v 2 7 -2
v 0 2 0
v 0 2.1 0
v 0 2.6 0
v 0 2.7 0
v 0 6.3 0
v 0 6.4 0
v 0 6.9 0
v 0 7 0
v 2 2 0
v 2 2.1 0
v 2 2.6 0
v 2 2.7 0
v 2 6.3 0
v 2 6.4 0
v 2 6.9 0
v 2 7 0
v 0.1 2.1 -0.1
v 0.1 2.2 -0.1
v 0.1 2.5 -0.1
v 0.1 2.6 -0.1
v 0.1 2.7 -0.1
v 0.1 6.3 -0.1
v 0.1 6.4 -0.1
v 0.1 6.5 -0.1
v 0.1 6.8 -0.1
v 0.1 6.9 -0.1
v 0.2 2.8 -0.1
v 0.2 5.3 -0.1
v 0.3 5.3 -0.1
v 0.3 5.5 -0.1
v 0.4 5.5 -0.1
v 0.4 5.6 -0.1
v 0.5 5.6 -0.1
v 0.5 5.7 -0.1
v 0.6 5.7 -0.1
v 0.6 5.8 -0.1
v 0.7 5.8 -0.1
v 0.7 5.9 -0.1
v 0.9 5.9 -0.1
v 0.9 6 -0.1
v 1.1 5.9 -0.1
v 1.1 6 -0.1
v 1.3 5.8 -0.1
v 1.3 5.9 -0.1
v 1.4 5.7 -0.1
v 1.4 5.8 -0.1
v 1.5 5.6 -0.1
v 1.5 5.7 -0.1
v 1.6 5.5 -0.1
v 1.6 5.6 -0.1
v 1.7 5.3 -0.1
v 1.7 5.5 -0.1
v 1.8 2.8 -0.1
v 1.8 5.3 -0.1
v 1.9 2.1 -0.1
v 1.9 2.2 -0.1
v 1.9 2.5 -0.1
v 1.9 2.6 -0.1
v 1.9 2.7 -0.1
v 1.9 6.3 -0.1
v 1.9 6.4 -0.1
v 1.9 6.5 -0.1
v 1.9 6.8 -0.1
v 1.9 6.9 -0.1
v 0.2 2.2 -0.2
v 0.2 2.5 -0.2
v 0.2 6.5 -0.2
v 0.2 6.8 -0.2
v 0.3 2.8 -0.2
v 0.3 3.2 -0.2
v 0.3 3.4 -0.2
v 0.3 5.3 -0.2
v 0.3 5.5 -0.2
v 0.4 5.5 -0.2
v 0.4 5.6 -0.2
v 0.5 2.8 -0.2
v 0.5 3.2 -0.2
v 0.5 3.4 -0.2
v 0.5 5.6 -0.2
v 0.6 2.8 -0.2
v 0.6 3.1 -0.2
v 0.6 3.3 -0.2
v 0.6 5.7 -0.2
v 0.6 5.8 -0.2
v 0.7 5.8 -0.2
v 0.7 5.9 -0.2
v 0.8 2.8 -0.2
v 0.8 3.1 -0.2
v 0.8 3.3 -0.2
v 0.8 5.9 -0.2
v 0.9 2.8 -0.2
v 0.9 3 -0.2
v 0.9 3.2 -0.2
v 0.9 5.9 -0.2
v 0.9 6 -0.2
v 1.1 2.8 -0.2
v 1.1 3 -0.2
v 1.1 3.2 -0.2
v 1.1 5.9 -0.2
v 1.1 6 -0.2
v 1.2 2.8 -0.2
v 1.2 3.1 -0.2
v 1.2 3.3 -0.2
v 1.2 5.9 -0.2
v 1.3 5.8 -0.2
v 1.3 5.9 -0.2
v 1.4 2.8 -0.2
v 1.4 3.1 -0.2
v 1.4 3.3 -0.2
v 1.4 5.7 -0.2
v 1.4 5.8 -0.2
v 1.5 2.8 -0.2
v 1.5 3.2 -0.2
v 1.5 3.4 -0.2
v 1.5 5.6 -0.2
v 1.6 5.5 -0.2
v 1.6 5.6 -0.2
v 1.7 2.8 -0.2
v 1.7 3.2 -0.2
v 1.7 3.4 -0.2
v 1.7 5.3 -0.2
v 1.7 5.5 -0.2
v 1.8 2.2 -0.2
v 1.8 2.5 -0.2
v 1.8 6.5 -0.2
v 1.8 6.8 -0.2
v 0.3 3.2 -0.3
v 0.3 3.4 -0.3
v 0.5 3.2 -0.3
v 0.5 3.4 -0.3
v 0.6 3.1 -0.3
v 0.6 3.3 -0.3
v 0.8 3.1 -0.3
v 0.8 3.3 -0.3
v 0.9 3 -0.3
v 0.9 3.2 -0.3
v 1.1 3 -0.3
v 1.1 3.2 -0.3
v 1.2 3.1 -0.3
v 1.2 3.3 -0.3
v 1.4 3.1 -0.3
v 1.4 3.3 -0.3
v 1.5 3.2 -0.3
v 1.5 3.4 -0.3
v 1.7 3.2 -0.3
v 1.7 3.4 -0.3
v 0.2 2.8 -0.4
v 0.2 5.3 -0.4
v 0.3 2.8 -0.4
v 0.3 3.2 -0.4
v 0.3 3.4 -0.4
v 0.3 5.3 -0.4
v 0.5 2.8 -0.4
v 0.5 3.2 -0.4
v 0.5 3.4 -0.4
v 0.5 5.6 -0.4
v 0.5 5.7 -0.4
v 0.6 2.8 -0.4
v 0.6 3.1 -0.4
v 0.6 3.3 -0.4
v 0.6 5.7 -0.4
v 0.8 2.8 -0.4
v 0.8 3.1 -0.4
v 0.8 3.3 -0.4
v 0.8 5.9 -0.4
v 0.9 2.8 -0.4
v 0.9 3 -0.4
v 0.9 3.2 -0.4
v 0.9 5.9 -0.4
v 1.1 2.8 -0.4
v 1.1 3 -0.4
v 1.1 3.2 -0.4
v 1.1 5.9 -0.4
v 1.2 2.8 -0.4
v 1.2 3.1 -0.4
v 1.2 3.3 -0.4
v 1.2 5.9 -0.4
v 1.4 2.8 -0.4
v 1.4 3.1 -0.4
v 1.4 3.3 -0.4
v 1.4 5.7 -0.4
v 1.5 2.8 -0.4
v 1.5 3.2 -0.4
v 1.5 3.4 -0.4
v 1.5 5.6 -0.4
v 1.5 5.7 -0.4
v 1.7 2.8 -0.4
v 1.7 3.2 -0.4
v 1.7 3.4 -0.4
v 1.7 5.3 -0.4
v 1.8 2.8 -0.4
v 1.8 5.3 -0.4
v 0.2 2.2 -1.8
v 0.2 2.5 -1.8
v 0.2 6.5 -1.8
v 0.2 6.8 -1.8
v 1.8 2.2 -1.8
v 1.8 2.5 -1.8
v 1.8 6.5 -1.8
v 1.8 6.8 -1.8
v 0.1 2.1 -1.9
v 0.1 2.2 -1.9
v 0.1 2.5 -1.9
v 0.1 2.6 -1.9
v 0.1 2.7 -1.9
v 0.1 6.3 -1.9
v 0.1 6.4 -1.9
v 0.1 6.5 -1.9
v 0.1 6.8 -1.9
v 0.1 6.9 -1.9
v 1.9 2.1 -1.9
v 1.9 2.2 -1.9
v 1.9 2.5 -1.9
v 1.9 2.6 -1.9
v 1.9 2.7 -1.9
v 1.9 6.3 -1.9
v 1.9 6.4 -1.9
v 1.9 6.5 -1.9
v 1.9 6.8 -1.9
v 1.9 6.9 -1.9
v 0 2 -2
v 0 2.1 -2
v 0 2.6 -2
v 0 2.7 -2
v 0 6.3 -2
v 0 6.4 -2
v 0 6.9 -2
v 0 7 -2
v 2 2 -2
v 2 2.1 -2
v 2 2.6 -2
v 2 2.7 -2
v 2 6.3 -2
v 2 6.4 -2
v 2 6.9 -2
v 2 7 -2
v 0 2 0
v 2 2 0
v 0 2 -2
v 2 2 -2
v 0.1 2.5 -0.1
v 1.9 2.5 -0.1
v 0.2 2.5 -0.2
v 1.8 2.5 -0.2
v 0.2 2.5 -1.8
v 1.8 2.5 -1.8
v 0.1 2.5 -1.9
v 1.9 2.5 -1.9
v 0 2.6 0
v 2 2.6 0
v 0.1 2.6 -0.1
v 1.9 2.6 -0.1
v 0.1 2.6 -1.9
v 1.9 2.6 -1.9
v 0 2.6 -2
v 2 2.6 -2
v 0.9 3.2 -0.2
v 1.1 3.2 -0.2
v 0.9 3.2 -0.3
v 1.1 3.2 -0.3
v 0.6 3.3 -0.2
v 0.8 3.3 -0.2
v 1.2 3.3 -0.2
v 1.4 3.3 -0.2
v 0.6 3.3 -0.3
v 0.8 3.3 -0.3
v 1.2 3.3 -0.3
v 1.4 3.3 -0.3
v 0.3 3.4 -0.2
v 0.5 3.4 -0.2
v 1.5 3.4 -0.2
v 1.7 3.4 -0.2
v 0.3 3.4 -0.3
v 0.5 3.4 -0.3
v 1.5 3.4 -0.3
v 1.7 3.4 -0.3
v 0.2 5.3 -0.1
v 0.3 5.3 -0.1
v 1.7 5.3 -0.1
v 1.8 5.3 -0.1
v 0.3 5.3 -0.2
v 1.7 5.3 -0.2
v 0.3 5.3 -0.3
v 1.7 5.3 -0.3
v 0.2 5.3 -0.4
v 0.3 5.3 -0.4
v 1.7 5.3 -0.4
v 1.8 5.3 -0.4
v 0.3 5.5 -0.1
v 0.4 5.5 -0.1
v 1.6 5.5 -0.1
v 1.7 5.5 -0.1
v 0.3 5.5 -0.2
v 0.4 5.5 -0.2
v 1.6 5.5 -0.2
v 1.7 5.5 -0.2
v 0.4 5.6 -0.1
v 0.5 5.6 -0.1
v 1.5 5.6 -0.1
v 1.6 5.6 -0.1
v 0.4 5.6 -0.2
v 0.5 5.6 -0.2
v 1.5 5.6 -0.2
v 1.6 5.6 -0.2
v 0.5 5.7 -0.1
v 0.6 5.7 -0.1
v 1.4 5.7 -0.1
v 1.5 5.7 -0.1
v 0.6 5.7 -0.2
v 1.4 5.7 -0.2
v 0.6 5.7 -0.3
v 1.4 5.7 -0.3
v 0.5 5.7 -0.4
v 0.6 5.7 -0.4
v 1.4 5.7 -0.4
v 1.5 5.7 -0.4
v 0.6 5.8 -0.1
v 0.7 5.8 -0.1
v 1.3 5.8 -0.1
v 1.4 5.8 -0.1
v 0.6 5.8 -0.2
v 0.7 5.8 -0.2
v 1.3 5.8 -0.2
v 1.4 5.8 -0.2
v 0.7 5.9 -0.1
v 0.9 5.9 -0.1
v 1.1 5.9 -0.1
v 1.3 5.9 -0.1
v 0.7 5.9 -0.2
v 0.8 5.9 -0.2
v 0.9 5.9 -0.2
v 1.1 5.9 -0.2
v 1.2 5.9 -0.2
v 1.3 5.9 -0.2
v 0.8 5.9 -0.3
v 0.9 5.9 -0.3
v 1.1 5.9 -0.3
v 1.2 5.9 -0.3
v 0.8 5.9 -0.4
v 0.9 5.9 -0.4
v 1.1 5.9 -0.4
v 1.2 5.9 -0.4
v 0.9 6 -0.1
v 1.1 6 -0.1
v 0.9 6 -0.2
v 1.1 6 -0.2
v 0 6.3 0
v 2 6.3 0
v 0.1 6.3 -0.1
v 1.9 6.3 -0.1
v 0.1 6.3 -1.9
v 1.9 6.3 -1.9
v 0 6.3 -2
v 2 6.3 -2
v 0.1 6.8 -0.1
v 1.9 6.8 -0.1
v 0.2 6.8 -0.2
v 1.8 6.8 -0.2
v 0.2 6.8 -1.8
v 1.8 6.8 -1.8
v 0.1 6.8 -1.9
v 1.9 6.8 -1.9
v 0 6.9 0
v 2 6.9 0
v 0.1 6.9 -0.1
v 1.9 6.9 -0.1
v 0.1 6.9 -1.9
v 1.9 6.9 -1.9
v 0 6.9 -2
v 2 6.9 -2
v 0 2.1 0
v 2 2.1 0
v 0.1 2.1 -0.1
v 1.9 2.1 -0.1
v 0.1 2.1 -1.9
v 1.9 2.1 -1.9
v 0 2.1 -2
v 2 2.1 -2
v 0.1 2.2 -0.1
v 1.9 2.2 -0.1
v 0.2 2.2 -0.2
v 1.8 2.2 -0.2
v 0.2 2.2 -1.8
v 1.8 2.2 -1.8
v 0.1 2.2 -1.9
v 1.9 2.2 -1.9
v 0 2.7 0
v 2 2.7 0
v 0.1 2.7 -0.1
v 1.9 2.7 -0.1
v 0.1 2.7 -1.9
v 1.9 2.7 -1.9
v 0 2.7 -2
v 2 2.7 -2
v 0.2 2.8 -0.1
v 1.8 2.8 -0.1
v 0.3 2.8 -0.2
v 0.5 2.8 -0.2
v 0.6 2.8 -0.2
v 0.8 2.8 -0.2
v 0.9 2.8 -0.2
v 1.1 2.8 -0.2
v 1.2 2.8 -0.2
v 1.4 2.8 -0.2
v 1.5 2.8 -0.2
v 1.7 2.8 -0.2
v 0.3 2.8 -0.3
v 0.5 2.8 -0.3
v 0.6 2.8 -0.3
v 0.8 2.8 -0.3
v 0.9 2.8 -0.3
v 1.1 2.8 -0.3
v 1.2 2.8 -0.3
v 1.4 2.8 -0.3
v 1.5 2.8 -0.3
v 1.7 2.8 -0.3
v 0.2 2.8 -0.4
v 0.3 2.8 -0.4
v 0.5 2.8 -0.4
v 0.6 2.8 -0.4
v 0.8 2.8 -0.4
v 0.9 2.8 -0.4
v 1.1 2.8 -0.4
v 1.2 2.8 -0.4
v 1.4 2.8 -0.4
v 1.5 2.8 -0.4
v 1.7 2.8 -0.4
v 1.8 2.8 -0.4
v 0.9 3 -0.2
v 1.1 3 -0.2
v 0.9 3 -0.3
v 1.1 3 -0.3
v 0.6 3.1 -0.2
v 0.8 3.1 -0.2
v 1.2 3.1 -0.2
v 1.4 3.1 -0.2
v 0.6 3.1 -0.3
v 0.8 3.1 -0.3
v 1.2 3.1 -0.3
v 1.4 3.1 -0.3
v 0.3 3.2 -0.2
v 0.5 3.2 -0.2
v 1.5 3.2 -0.2
v 1.7 3.2 -0.2
v 0.3 3.2 -0.3
v 0.5 3.2 -0.3
v 1.5 3.2 -0.3
v 1.7 3.2 -0.3
v 0 6.4 0
v 2 6.4 0
v 0.1 6.4 -0.1
v 1.9 6.4 -0.1
v 0.1 6.4 -1.9
v 1.9 6.4 -1.9
v 0 6.4 -2
v 2 6.4 -2
v 0.1 6.5 -0.1
v 1.9 6.5 -0.1
v 0.2 6.5 -0.2
v 1.8 6.5 -0.2
v 0.2 6.5 -1.8
v 1.8 6.5 -1.8
v 0.1 6.5 -1.9
v 1.9 6.5 -1.9
v 0 7 0
v 2 7 0
v 0 7 -2
v 2 7 -2

# faces
f 3/1/1 2/1/1 1/1/1
f 4/1/1 2/1/1 3/1/1
f 7/1/1 6/1/1 5/1/1
f 8/1/1 6/1/1 7/1/1
f 11/1/1 10/1/1 9/1/1
f 12/1/1 10/1/1 11/1/1
f 15/1/1 14/1/1 13/1/1
f 16/1/1 14/1/1 15/1/1
f 19/1/1 18/1/1 17/1/1
f 20/1/1 18/1/1 19/1/1
f 23/1/1 22/1/1 21/1/1
f 24/1/1 22/1/1 23/1/1
f 27/1/1 26/1/1 25/1/1
f 28/1/1 26/1/1 27/1/1
f 31/1/1 30/1/1 29/1/1
f 32/1/1 30/1/1 31/1/1
f 35/1/1 34/1/1 33/1/1
f 36/1/1 34/1/1 35/1/1
f 39/1/1 38/1/1 37/1/1
f 40/1/1 38/1/1 39/1/1
f 43/1/1 42/1/1 41/1/1
f 44/1/1 42/1/1 43/1/1
f 48/2/1 46/2/1 45/2/1
f 49/3/1 47/3/1 46/3/1
f 49/2/1 46/2/1 48/2/1
f 50/3/1 47/3/1 49/3/1
f 52/2/1 50/2/1 49/2/1
f 53/2/1 50/2/1 52/2/1
f 54/2/1 52/2/1 51/2/1
f 55/3/1 53/3/1 52/3/1
f 55/2/1 52/2/1 54/2/1
f 56/3/1 53/3/1 55/3/1
f 60/2/1 58/2/1 57/2/1
f 61/3/1 59/3/1 58/3/1
f 61/2/1 58/2/1 60/2/1
f 62/3/1 59/3/1 61/3/1
f 64/2/1 62/2/1 61/2/1
f 65/2/1 62/2/1 64/2/1
f 66/2/1 64/2/1 63/2/1
f 67/3/1 65/3/1 64/3/1
f 67/2/1 64/2/1 66/2/1
f 68/3/1 65/3/1 67/3/1
f 72/2/1 70/2/1 69/2/1
f 73/3/1 71/3/1 70/3/1
f 73/2/1 70/2/1 72/2/1
f 74/3/1 71/3/1 73/3/1
f 76/2/1 74/2/1 73/2/1
f 77/2/1 74/2/1 76/2/1
f 78/2/1 76/2/1 75/2/1
f 79/3/1 77/3/1 76/3/1
f 79/2/1 76/2/1 78/2/1
f 80/3/1 77/3/1 79/3/1
f 83/1/1 82/1/1 81/1/1
f 84/1/1 82/1/1 83/1/1
f 88/2/1 86/2/1 85/2/1
f 89/3/1 87/3/1 86/3/1
f 89/2/1 86/2/1 88/2/1
f 90/3/1 87/3/1 89/3/1
f 92/2/1 90/2/1 89/2/1
f 93/2/1 90/2/1 92/2/1
f 94/2/1 92/2/1 91/2/1
f 95/3/1 93/3/1 92/3/1
f 95/2/1 92/2/1 94/2/1
f 96/3/1 93/3/1 95/3/1
f 99/1/1 98/1/1 97/1/1
f 100/1/1 98/1/1 99/1/1
f 103/1/1 102/1/1 101/1/1
f 104/1/1 102/1/1 103/1/1
f 108/2/1 106/2/1 105/2/1
f 109/3/1 107/3/1 106/3/1
f 109/2/1 106/2/1 108/2/1
f 110/3/1 107/3/1 109/3/1
f 112/2/1 110/2/1 109/2/1
f 113/2/1 110/2/1 112/2/1
f 115/2/1 112/2/1 111/2/1
f 116/3/1 113/3/1 112/3/1
f 116/2/1 112/2/1 115/2/1
f 117/3/1 113/3/1 116/3/1
f 118/1/1 115/1/1 114/1/1
f 118/1/1 116/1/1 115/1/1
f 118/1/1 117/1/1 116/1/1
f 119/1/1 117/1/1 118/1/1
f 122/1/1 121/1/1 120/1/1
f 123/1/1 121/1/1 122/1/1
f 126/1/1 125/1/1 124/1/1
f 127/1/1 125/1/1 126/1/1
f 130/1/1 129/1/1 128/1/1
f 131/1/1 129/1/1 130/1/1
f 132/1/2 133/1/2 134/1/2
f 134/1/2 133/1/2 135/1/2
f 136/1/2 137/1/2 138/1/2
f 138/1/2 137/1/2 139/1/2
f 140/1/2 141/1/2 142/1/2
f 142/1/2 141/1/2 143/1/2
f 144/2/2 145/2/2 147/2/2
f 145/3/2 146/3/2 148/3/2
f 147/2/2 145/2/2 148/2/2
f 148/3/2 146/3/2 149/3/2
f 148/2/2 149/2/2 151/2/2
f 151/2/2 149/2/2 152/2/2
f 150/2/2 151/2/2 154/2/2
f 151/3/2 152/3/2 155/3/2
f 154/2/2 151/2/2 155/2/2
f 155/3/2 152/3/2 156/3/2
f 153/1/2 154/1/2 157/1/2
f 154/1/2 155/1/2 157/1/2
f 155/1/2 156/1/2 157/1/2
f 157/1/2 156/1/2 158/1/2
f 159/1/2 160/1/2 161/1/2
f 161/1/2 160/1/2 162/1/2
f 163/1/2 164/1/2 165/1/2
f 165/1/2 164/1/2 166/1/2
f 167/2/2 168/2/2 170/2/2
f 168/3/2 169/3/2 171/3/2
f 170/2/2 168/2/2 171/2/2
f 171/3/2 169/3/2 172/3/2
f 171/2/2 172/2/2 174/2/2
f 174/2/2 172/2/2 175/2/2
f 173/2/2 174/2/2 176/2/2
f 174/3/2 175/3/2 177/3/2
f 176/2/2 174/2/2 177/2/2
f 177/3/2 175/3/2 178/3/2
f 179/1/2 180/1/2 181/1/2
f 181/1/2 180/1/2 182/1/2
f 183/2/2 184/2/2 186/2/2
f 184/3/2 185/3/2 187/3/2
f 186/2/2 184/2/2 187/2/2
f 187/3/2 185/3/2 188/3/2
f 187/2/2 188/2/2 190/2/2
f 190/2/2 188/2/2 191/2/2
f 189/2/2 190/2/2 192/2/2
f 190/3/2 191/3/2 193/3/2
f 192/2/2 190/2/2 193/2/2
f 193/3/2 191/3/2 194/3/2
f 195/2/2 196/2/2 198/2/2
f 196/3/2 197/3/2 199/3/2
f 198/2/2 196/2/2 199/2/2
f 199/3/2 197/3/2 200/3/2
f 199/2/2 200/2/2 202/2/2
f 202/2/2 200/2/2 203/2/2
f 201/2/2 202/2/2 204/2/2
f 202/3/2 203/3/2 205/3/2
f 204/2/2 202/2/2 205/2/2
f 205/3/2 203/3/2 206/3/2
f 207/2/2 208/2/2 210/2/2
f 208/3/2 209/3/2 211/3/2
f 210/2/2 208/2/2 211/2/2
f 211/3/2 209/3/2 212/3/2
f 211/2/2 212/2/2 214/2/2
f 214/2/2 212/2/2 215/2/2
f 213/2/2 214/2/2 216/2/2
f 214/3/2 215/3/2 217/3/2
f 216/2/2 214/2/2 217/2/2
f 217/3/2 215/3/2 218/3/2
f 219/1/2 220/1/2 221/1/2
f 221/1/2 220/1/2 222/1/2
f 223/1/2 224/1/2 225/1/2
f 225/1/2 224/1/2 226/1/2
f 227/1/2 228/1/2 229/1/2
f 229/1/2 228/1/2 230/1/2
f 231/1/2 232/1/2 233/1/2
f 233/1/2 232/1/2 234/1/2
f 235/1/2 236/1/2 237/1/2
f 237/1/2 236/1/2 238/1/2
f 239/1/2 240/1/2 241/1/2
f 241/1/2 240/1/2 242/1/2
f 243/1/2 244/1/2 245/1/2
f 245/1/2 244/1/2 246/1/2
f 247/1/2 248/1/2 249/1/2
f 249/1/2 248/1/2 250/1/2
f 251/1/2 252/1/2 253/1/2
f 253/1/2 252/1/2 254/1/2
f 255/1/2 256/1/2 257/1/2
f 257/1/2 256/1/2 258/1/2
f 259/1/2 260/1/2 261/1/2
f 261/1/2 260/1/2 262/1/2
f 271/1/3 264/1/3 263/1/3
f 272/1/3 264/1/3 271/1/3
f 273/1/3 266/1/3 265/1/3
f 274/1/3 266/1/3 273/1/3
f 275/1/3 268/1/3 267/1/3
f 276/1/3 268/1/3 275/1/3
f 277/1/3 270/1/3 269/1/3
f 278/1/3 270/1/3 277/1/3
f 289/1/3 284/1/3 283/1/3
f 290/1/3 284/1/3 289/1/3
f 291/1/3 284/1/3 290/1/3
f 292/1/3 284/1/3 291/1/3
f 293/1/3 284/1/3 292/1/3
f 294/1/3 284/1/3 293/1/3
f 295/1/3 284/1/3 294/1/3
f 296/1/3 284/1/3 295/1/3
f 297/1/3 284/1/3 296/1/3
f 298/1/3 284/1/3 297/1/3
f 299/1/3 284/1/3 298/1/3
f 300/1/3 284/1/3 299/1/3
f 301/1/3 284/1/3 300/1/3
f 302/1/3 284/1/3 301/1/3
f 304/1/3 284/1/3 302/1/3
f 306/1/3 304/1/3 303/1/3
f 308/1/3 306/1/3 305/1/3
f 310/1/3 308/1/3 307/1/3
f 312/1/3 310/1/3 309/1/3
f 314/1/3 312/1/3 311/1/3
f 315/1/3 289/1/3 283/1/3
f 316/1/3 314/1/3 313/1/3
f 317/1/3 280/1/3 279/1/3
f 318/1/3 280/1/3 317/1/3
f 319/1/3 282/1/3 281/1/3
f 320/1/3 282/1/3 319/1/3
f 321/1/3 316/1/3 315/1/3
f 321/1/3 315/1/3 283/1/3
f 322/1/3 284/1/3 304/1/3
f 322/1/3 316/1/3 321/1/3
f 322/1/3 304/1/3 306/1/3
f 322/1/3 306/1/3 308/1/3
f 322/1/3 314/1/3 316/1/3
f 322/1/3 308/1/3 310/1/3
f 322/1/3 312/1/3 314/1/3
f 322/1/3 310/1/3 312/1/3
f 323/1/3 286/1/3 285/1/3
f 324/1/3 286/1/3 323/1/3
f 325/1/3 288/1/3 287/1/3
f 326/1/3 288/1/3 325/1/3
f 336/2/3 334/2/3 333/2/3
f 336/2/3 335/2/3 334/2/3
f 338/2/3 332/2/3 331/2/3
f 339/2/3 332/2/3 338/2/3
f 340/2/3 337/2/3 336/2/3
f 340/2/3 336/2/3 333/2/3
f 341/2/3 337/2/3 340/2/3
f 347/2/3 345/2/3 344/2/3
f 347/2/3 346/2/3 345/2/3
f 349/2/3 343/2/3 342/2/3
f 350/2/3 343/2/3 349/2/3
f 351/2/3 348/2/3 347/2/3
f 351/2/3 347/2/3 344/2/3
f 352/2/3 348/2/3 351/2/3
f 358/2/3 354/2/3 353/2/3
f 359/2/3 354/2/3 358/2/3
f 360/2/3 356/2/3 355/2/3
f 360/2/3 357/2/3 356/2/3
f 361/2/3 357/2/3 360/2/3
f 362/2/3 357/2/3 361/2/3
f 367/2/3 366/2/3 365/2/3
f 368/2/3 366/2/3 367/2/3
f 369/2/3 364/2/3 363/2/3
f 370/2/3 364/2/3 369/2/3
f 371/2/3 367/2/3 365/2/3
f 372/2/3 367/2/3 371/2/3
f 373/2/3 367/2/3 372/2/3
f 378/2/3 377/2/3 376/2/3
f 379/2/3 377/2/3 378/2/3
f 380/2/3 375/2/3 374/2/3
f 381/2/3 375/2/3 380/2/3
f 382/2/3 378/2/3 376/2/3
f 383/2/3 378/2/3 382/2/3
f 384/2/3 378/2/3 383/2/3
f 385/1/3 328/1/3 327/1/3
f 386/1/3 328/1/3 385/1/3
f 387/1/3 330/1/3 329/1/3
f 388/1/3 330/1/3 387/1/3
f 391/2/3 390/2/3 389/2/3
f 392/2/3 390/2/3 391/2/3
f 395/2/3 394/2/3 393/2/3
f 396/2/3 394/2/3 395/2/3
f 399/2/3 398/2/3 397/2/3
f 400/2/3 398/2/3 399/2/3
f 403/2/3 402/2/3 401/2/3
f 404/2/3 402/2/3 403/2/3
f 407/2/3 406/2/3 405/2/3
f 408/2/3 406/2/3 407/2/3
f 411/3/3 410/3/3 409/3/3
f 412/3/3 410/3/3 411/3/3
f 413/3/3 410/3/3 412/3/3
f 414/3/3 410/3/3 413/3/3
f 420/3/3 417/3/3 416/3/3
f 420/3/3 419/3/3 418/3/3
f 420/3/3 418/3/3 417/3/3
f 420/3/3 416/3/3 415/3/3
f 421/3/3 419/3/3 420/3/3
f 422/3/3 419/3/3 421/3/3
f 423/3/3 419/3/3 422/3/3
f 428/3/3 426/3/3 425/3/3
f 428/3/3 427/3/3 426/3/3
f 428/3/3 425/3/3 424/3/3
f 429/3/3 427/3/3 428/3/3
f 430/3/3 427/3/3 429/3/3
f 431/3/3 427/3/3 430/3/3
f 436/3/3 433/3/3 432/3/3
f 436/3/3 435/3/3 434/3/3
f 436/3/3 434/3/3 433/3/3
f 437/3/3 435/3/3 436/3/3
f 438/3/3 435/3/3 437/3/3
f 439/3/3 435/3/3 438/3/3
f 444/3/3 441/3/3 440/3/3
f 444/3/3 443/3/3 442/3/3
f 444/3/3 442/3/3 441/3/3
f 445/3/3 443/3/3 444/3/3
f 446/3/3 443/3/3 445/3/3
f 447/3/3 443/3/3 446/3/3
f 448/3/3 443/3/3 447/3/3
f 453/3/3 450/3/3 449/3/3
f 453/3/3 452/3/3 451/3/3
f 453/3/3 451/3/3 450/3/3
f 454/3/3 452/3/3 453/3/3
f 455/1/4 456/1/4 459/1/4
f 459/1/4 456/1/4 460/1/4
f 457/1/4 458/1/4 461/1/4
f 461/1/4 458/1/4 462/1/4
f 463/1/4 464/1/4 473/1/4
f 473/1/4 464/1/4 474/1/4
f 465/1/4 466/1/4 475/1/4
f 475/1/4 466/1/4 476/1/4
f 467/1/4 468/1/4 477/1/4
f 477/1/4 468/1/4 478/1/4
f 469/1/4 470/1/4 479/1/4
f 479/1/4 470/1/4 480/1/4
f 471/1/4 472/1/4 481/1/4
f 481/1/4 472/1/4 482/1/4
f 483/1/4 484/1/4 491/1/4
f 491/1/4 484/1/4 492/1/4
f 485/1/4 486/1/4 493/1/4
f 493/1/4 486/1/4 494/1/4
f 487/1/4 488/1/4 495/1/4
f 495/1/4 488/1/4 496/1/4
f 489/1/4 490/1/4 497/1/4
f 497/1/4 490/1/4 498/1/4
f 501/1/5 500/1/5 499/1/5
f 502/1/5 500/1/5 501/1/5
f 505/1/5 504/1/5 503/1/5
f 506/1/5 504/1/5 505/1/5
f 507/1/5 505/1/5 503/1/5
f 508/1/5 504/1/5 506/1/5
f 509/1/5 507/1/5 503/1/5
f 509/1/5 508/1/5 507/1/5
f 510/1/5 504/1/5 508/1/5
f 510/1/5 508/1/5 509/1/5
f 513/1/5 512/1/5 511/1/5
f 514/1/5 512/1/5 513/1/5
f 515/1/5 513/1/5 511/1/5
f 516/1/5 512/1/5 514/1/5
f 517/1/5 515/1/5 511/1/5
f 517/1/5 516/1/5 515/1/5
f 518/1/5 512/1/5 516/1/5
f 518/1/5 516/1/5 517/1/5
f 521/2/5 520/2/5 519/2/5
f 522/2/5 520/2/5 521/2/5
f 527/2/5 524/2/5 523/2/5
f 528/2/5 524/2/5 527/2/5
f 529/2/5 526/2/5 525/2/5
f 530/2/5 526/2/5 529/2/5
f 535/2/5 532/2/5 531/2/5
f 536/2/5 532/2/5 535/2/5
f 537/2/5 534/2/5 533/2/5
f 538/2/5 534/2/5 537/2/5
f 543/1/5 540/1/5 539/1/5
f 544/1/5 542/1/5 541/1/5
f 545/1/5 543/1/5 539/1/5
f 546/1/5 542/1/5 544/1/5
f 547/1/5 545/1/5 539/1/5
f 548/1/5 545/1/5 547/1/5
f 549/1/5 542/1/5 546/1/5
f 550/1/5 542/1/5 549/1/5
f 555/1/5 552/1/5 551/1/5
f 556/1/5 552/1/5 555/1/5
f 557/1/5 554/1/5 553/1/5
f 558/1/5 554/1/5 557/1/5
f 563/1/5 560/1/5 559/1/5
f 564/1/5 560/1/5 563/1/5
f 565/1/5 562/1/5 561/1/5
f 566/1/5 562/1/5 565/1/5
f 571/1/5 568/1/5 567/1/5
f 572/1/5 570/1/5 569/1/5
f 573/1/5 571/1/5 567/1/5
f 574/1/5 570/1/5 572/1/5
f 575/1/5 573/1/5 567/1/5
f 576/1/5 573/1/5 575/1/5
f 577/1/5 570/1/5 574/1/5
f 578/1/5 570/1/5 577/1/5
f 583/1/5 580/1/5 579/1/5
f 584/1/5 580/1/5 583/1/5
f 585/1/5 582/1/5 581/1/5
f 586/1/5 582/1/5 585/1/5
f 591/1/5 588/1/5 587/1/5
f 592/1/5 588/1/5 591/1/5
f 593/1/5 588/1/5 592/1/5
f 594/1/5 590/1/5 589/1/5
f 595/1/5 590/1/5 594/1/5
f 596/1/5 590/1/5 595/1/5
f 597/1/5 593/1/5 592/1/5
f 598/1/5 593/1/5 597/1/5
f 599/1/5 595/1/5 594/1/5
f 600/1/5 595/1/5 599/1/5
f 601/1/5 598/1/5 597/1/5
f 602/1/5 598/1/5 601/1/5
f 603/1/5 600/1/5 599/1/5
f 604/1/5 600/1/5 603/1/5
f 607/1/5 606/1/5 605/1/5
f 608/1/5 606/1/5 607/1/5
f 611/1/5 610/1/5 609/1/5
f 612/1/5 610/1/5 611/1/5
f 613/1/5 611/1/5 609/1/5
f 614/1/5 610/1/5 612/1/5
f 615/1/5 613/1/5 609/1/5
f 615/1/5 614/1/5 613/1/5
f 616/1/5 610/1/5 614/1/5
f 616/1/5 614/1/5 615/1/5
f 619/1/5 618/1/5 617/1/5
f 620/1/5 618/1/5 619/1/5
f 621/1/5 619/1/5 617/1/5
f 622/1/5 618/1/5 620/1/5
f 623/1/5 621/1/5 617/1/5
f 623/1/5 622/1/5 621/1/5
f 624/1/5 618/1/5 622/1/5
f 624/1/5 622/1/5 623/1/5
f 627/1/5 626/1/5 625/1/5
f 628/1/5 626/1/5 627/1/5
f 629/1/5 627/1/5 625/1/5
f 630/1/5 626/1/5 628/1/5
f 631/1/5 629/1/5 625/1/5
f 631/1/5 630/1/5 629/1/5
f 632/1/5 626/1/5 630/1/5
f 632/1/5 630/1/5 631/1/5
f 633/1/6 634/1/6 635/1/6
f 635/1/6 634/1/6 636/1/6
f 633/1/6 635/1/6 637/1/6
f 636/1/6 634/1/6 638/1/6
f 633/1/6 637/1/6 639/1/6
f 637/1/6 638/1/6 639/1/6
f 638/1/6 634/1/6 640/1/6
f 639/1/6 638/1/6 640/1/6
f 641/1/6 642/1/6 643/1/6
f 643/1/6 642/1/6 644/1/6
f 641/1/6 643/1/6 645/1/6
f 644/1/6 642/1/6 646/1/6
f 641/1/6 645/1/6 647/1/6
f 645/1/6 646/1/6 647/1/6
f 646/1/6 642/1/6 648/1/6
f 647/1/6 646/1/6 648/1/6
f 649/1/6 650/1/6 651/1/6
f 651/1/6 650/1/6 652/1/6
f 649/1/6 651/1/6 653/1/6
f 652/1/6 650/1/6 654/1/6
f 649/1/6 653/1/6 655/1/6
f 653/1/6 654/1/6 655/1/6
f 654/1/6 650/1/6 656/1/6
f 655/1/6 654/1/6 656/1/6
f 657/1/6 658/1/6 659/1/6
f 659/1/6 658/1/6 660/1/6
f 660/1/6 658/1/6 661/1/6
f 661/1/6 658/1/6 662/1/6
f 662/1/6 658/1/6 663/1/6
f 663/1/6 658/1/6 664/1/6
f 664/1/6 658/1/6 665/1/6
f 665/1/6 658/1/6 666/1/6
f 666/1/6 658/1/6 667/1/6
f 667/1/6 658/1/6 668/1/6
f 657/1/6 659/1/6 669/1/6
f 660/1/6 661/1/6 670/1/6
f 670/1/6 661/1/6 671/1/6
f 662/1/6 663/1/6 672/1/6
f 672/1/6 663/1/6 673/1/6
f 664/1/6 665/1/6 674/1/6
f 674/1/6 665/1/6 675/1/6
f 666/1/6 667/1/6 676/1/6
f 676/1/6 667/1/6 677/1/6
f 668/1/6 658/1/6 678/1/6
f 657/1/6 669/1/6 679/1/6
f 679/1/6 669/1/6 680/1/6
f 670/1/6 671/1/6 681/1/6
f 681/1/6 671/1/6 682/1/6
f 672/1/6 673/1/6 683/1/6
f 683/1/6 673/1/6 684/1/6
f 674/1/6 675/1/6 685/1/6
f 685/1/6 675/1/6 686/1/6
f 676/1/6 677/1/6 687/1/6
f 687/1/6 677/1/6 688/1/6
f 678/1/6 658/1/6 689/1/6
f 689/1/6 658/1/6 690/1/6
f 691/2/6 692/2/6 693/2/6
f 693/2/6 692/2/6 694/2/6
f 695/2/6 696/2/6 699/2/6
f 699/2/6 696/2/6 700/2/6
f 697/2/6 698/2/6 701/2/6
f 701/2/6 698/2/6 702/2/6
f 703/2/6 704/2/6 707/2/6
f 707/2/6 704/2/6 708/2/6
f 705/2/6 706/2/6 709/2/6
f 709/2/6 706/2/6 710/2/6
f 711/1/6 712/1/6 713/1/6
f 713/1/6 712/1/6 714/1/6
f 711/1/6 713/1/6 715/1/6
f 714/1/6 712/1/6 716/1/6
f 711/1/6 715/1/6 717/1/6
f 715/1/6 716/1/6 717/1/6
f 716/1/6 712/1/6 718/1/6
f 717/1/6 716/1/6 718/1/6
f 719/1/6 720/1/6 721/1/6
f 721/1/6 720/1/6 722/1/6
f 719/1/6 721/1/6 723/1/6
f 722/1/6 720/1/6 724/1/6
f 719/1/6 723/1/6 725/1/6
f 723/1/6 724/1/6 725/1/6
f 724/1/6 720/1/6 726/1/6
f 725/1/6 724/1/6 726/1/6
f 727/1/6 728/1/6 729/1/6
f 729/1/6 728/1/6 730/1/6
